<?xml version="1.0" standalone="no"?>
<!DOCTYPE svg PUBLIC "-//W3C//DTD SVG 20010904//EN"
 "http://www.w3.org/TR/2001/REC-SVG-20010904/DTD/svg10.dtd">
<svg version="1.0" xmlns="http://www.w3.org/2000/svg"
 width="1251.000000pt" height="486.000000pt" viewBox="0 0 1251.000000 486.000000"
 preserveAspectRatio="xMidYMid meet">
<metadata>
Created by potrace 1.16, written by Peter Selinger 2001-2019
</metadata>
<g transform="translate(0.000000,486.000000) scale(0.100000,-0.100000)"
fill="#000000" stroke="none">
<path d="M1019 4851 c-46 -15 -73 -33 -122 -79 -65 -64 -87 -124 -88 -250 -1
-87 1 -103 24 -149 30 -59 89 -113 164 -149 59 -29 57 -23 67 -220 l5 -92 -42
-16 c-93 -35 -172 -136 -204 -259 -16 -61 -16 -68 0 -119 29 -92 112 -178 200
-211 5 -1 10 -64 12 -140 3 -132 2 -138 -18 -148 -26 -13 -48 -38 -88 -98
l-29 -45 0 50 c0 40 -5 55 -23 72 -45 43 -77 22 -77 -50 0 -41 -3 -48 -20 -49
-11 -1 -26 -2 -32 -3 -32 -3 17 171 76 268 41 68 44 86 18 109 -38 35 -58 22
-106 -65 -58 -108 -86 -202 -86 -289 0 -60 3 -71 27 -95 24 -24 30 -26 85 -20
57 7 58 7 58 -18 0 -15 14 -42 33 -63 19 -21 45 -63 59 -93 39 -83 130 -176
202 -205 l60 -23 3 -66 c1 -36 6 -89 10 -118 14 -92 9 -102 -51 -121 -138 -44
-215 -156 -203 -294 6 -59 14 -80 73 -194 31 -58 146 -128 226 -135 64 -7 145
19 215 68 59 40 78 63 92 109 10 34 14 37 63 43 29 3 101 6 159 6 84 0 109 3
119 15 10 12 10 19 2 27 -7 7 -12 19 -12 28 0 9 -8 24 -18 33 -16 14 -43 17
-164 17 l-146 0 -16 51 c-23 70 -61 127 -98 147 -37 20 -108 81 -106 90 1 4
-2 52 -7 107 -5 55 -8 103 -7 106 1 4 -3 21 -8 38 l-8 31 66 20 c84 24 135 66
168 136 15 33 32 54 42 55 9 0 90 4 178 8 184 9 197 14 182 71 -18 64 -16 63
-195 57 l-163 -5 -10 38 c-21 78 -119 178 -224 230 -64 32 -65 33 -75 84 -6
28 -13 81 -17 119 -6 64 -5 67 15 67 34 0 127 49 166 88 19 19 43 58 54 86
l19 51 98 1 c136 1 230 13 245 30 9 11 8 24 -6 60 l-17 46 -132 -5 c-187 -7
-192 -6 -223 60 -31 64 -106 136 -190 181 l-60 32 -12 97 c-7 54 -14 116 -17
139 l-4 41 72 13 c122 21 177 66 222 182 l15 37 165 -5 c156 -4 167 -3 186 16
24 24 19 63 -11 94 -15 16 -35 20 -126 23 -59 2 -135 5 -167 7 l-59 4 -28 61
c-45 98 -122 191 -177 212 -15 6 -58 15 -97 20 -38 5 -83 11 -100 13 -16 3
-42 1 -56 -3z m211 -132 c24 -10 79 -75 108 -127 8 -13 18 -53 23 -88 7 -51 6
-72 -7 -103 -31 -78 -136 -122 -244 -103 -68 12 -164 62 -181 94 -7 13 -10 58
-7 117 4 111 20 147 84 196 38 29 44 30 119 27 44 -2 91 -8 105 -13z m-43
-939 c68 -16 127 -58 160 -114 38 -65 43 -86 32 -136 -19 -84 -131 -158 -222
-148 -67 8 -162 55 -194 97 -22 28 -28 46 -27 82 3 67 53 154 118 200 42 31
66 34 133 19z m115 -886 c95 -48 156 -133 142 -198 -11 -52 -50 -120 -83 -144
-84 -61 -199 -49 -280 30 -57 56 -85 118 -76 167 9 47 53 128 83 152 39 30
148 27 214 -7z m1 -924 c26 -16 52 -30 57 -30 19 0 52 -62 62 -118 20 -110 -8
-163 -115 -217 -121 -60 -222 -1 -247 145 -18 100 29 188 122 230 57 26 66 25
121 -10z"/>
<path d="M3792 4644 c2 -19 19 -39 58 -69 31 -24 62 -50 70 -59 25 -31 13 -85
-40 -177 -59 -103 -63 -132 -19 -155 61 -31 69 -23 162 160 40 80 41 151 1
204 -34 45 -45 54 -109 92 -31 19 -64 30 -87 30 -35 0 -38 -2 -36 -26z"/>
<path d="M7325 4662 c-96 -9 -136 -47 -170 -164 l-16 -58 -68 0 c-37 0 -92 -4
-122 -10 -237 -43 -424 -51 -739 -30 -229 14 -330 19 -555 25 -115 4 -392 15
-615 26 -223 10 -503 19 -623 19 l-217 0 -10 -25 c-11 -30 -1 -62 29 -89 19
-18 36 -19 201 -17 99 1 269 -2 377 -8 109 -6 326 -15 483 -21 669 -24 876
-32 895 -37 11 -3 160 -7 330 -9 276 -3 320 -1 400 16 50 11 119 20 153 20
l64 0 -5 -97 c-3 -54 2 -158 9 -231 8 -73 18 -189 22 -258 7 -122 7 -125 -13
-119 -11 3 -95 8 -187 12 -165 6 -168 6 -168 28 0 13 -7 28 -15 35 -8 7 -15
22 -15 34 0 30 -24 61 -59 76 -34 14 -228 9 -347 -8 -145 -22 -252 -85 -275
-161 l-11 -38 -122 -7 c-308 -19 -438 -20 -806 -9 -217 7 -512 14 -655 15
l-260 3 -3 -45 c-4 -78 3 -80 305 -85 142 -2 287 -7 323 -9 220 -18 910 -25
1081 -12 l115 8 12 -98 c6 -55 14 -110 17 -124 3 -14 10 -72 16 -130 5 -58 13
-127 18 -154 4 -26 9 -82 10 -123 2 -68 0 -74 -16 -70 -19 6 -160 15 -327 23
-55 2 -101 6 -104 8 -2 3 -8 27 -13 53 -18 92 -126 171 -241 174 -217 6 -376
-20 -414 -68 -36 -45 -64 -95 -79 -141 l-17 -51 -286 1 c-349 0 -432 -5 -449
-29 -21 -28 -15 -63 17 -94 24 -25 34 -28 57 -22 15 4 169 8 341 8 l313 0 4
-225 c2 -124 8 -261 14 -305 8 -60 6 -273 -3 -281 0 -1 -30 2 -66 6 -36 5
-139 7 -230 5 -91 -2 -212 -4 -270 -4 -58 -1 -111 -5 -117 -9 -7 -4 -16 -22
-19 -39 -5 -26 -1 -36 22 -58 l28 -26 303 6 c167 4 316 4 332 0 20 -4 33 -15
39 -35 17 -49 89 -110 176 -150 99 -46 153 -53 282 -39 54 6 133 10 175 10 62
-2 80 2 101 19 28 21 68 113 68 155 0 22 5 24 63 29 129 13 1269 11 1432 -1
94 -8 353 -13 627 -13 459 -1 468 -1 479 -21 15 -28 86 -92 118 -105 74 -31
154 -37 351 -26 177 11 196 14 217 34 14 13 23 33 23 51 l0 30 143 -7 c78 -4
171 -9 207 -11 36 -2 342 -6 680 -9 338 -4 833 -9 1100 -11 267 -3 539 -8 606
-11 105 -5 123 -4 137 11 21 20 21 38 2 74 -25 50 -47 53 -490 56 -225 2 -780
7 -1231 10 -751 6 -1121 19 -1140 38 -4 3 -8 30 -10 59 -2 29 -8 89 -14 133
-5 44 -12 132 -15 195 -4 63 -13 144 -20 180 -27 130 -46 242 -43 246 2 2 130
0 284 -4 l279 -7 3 -47 c3 -40 10 -54 50 -97 66 -70 95 -76 332 -75 249 1 256
3 293 103 15 40 27 80 27 89 1 44 -2 43 371 32 195 -5 431 -15 525 -21 94 -5
294 -11 444 -11 254 -1 274 0 287 17 19 28 16 60 -10 90 l-23 27 -359 3 c-198
2 -461 8 -585 14 -124 6 -301 13 -395 16 -93 3 -184 8 -201 11 l-32 6 0 161
c-1 155 -6 201 -46 392 -8 39 -17 86 -20 105 l-6 35 48 3 c26 1 111 0 190 -4
l143 -6 13 -32 c21 -50 66 -97 113 -117 101 -43 339 -65 430 -40 46 13 73 49
88 121 10 49 12 50 48 32 27 -14 72 -16 306 -15 290 1 291 1 291 48 0 11 -11
34 -24 50 l-24 30 -232 1 c-128 1 -256 5 -285 9 l-54 6 0 182 c-1 100 -5 252
-11 337 -5 85 -10 173 -10 196 l0 41 51 11 c30 7 135 12 260 12 l209 0 6 26
c5 18 0 32 -16 49 -40 43 -80 49 -311 50 l-215 0 -3 40 c-5 91 -31 163 -70
192 -51 38 -260 56 -373 32 -67 -15 -114 -61 -153 -152 l-27 -66 -157 2 c-86
1 -181 -1 -211 -4 -30 -3 -143 0 -250 7 -494 34 -811 43 -1426 44 -347 0 -652
3 -677 6 -35 5 -47 11 -51 28 -4 11 -32 49 -64 84 l-57 63 -155 2 c-85 1 -168
1 -185 -1z m312 -144 c31 -18 32 -22 26 -64 -5 -40 -3 -48 22 -74 l28 -29 4
-203 c3 -112 10 -248 16 -303 17 -143 15 -370 -3 -420 l-15 -40 -75 -3 c-70
-2 -231 16 -310 35 -56 14 -56 13 -85 396 -3 34 -10 111 -16 171 -8 87 -7 137
6 250 9 77 21 157 26 176 25 83 42 118 62 129 15 7 67 8 152 5 104 -5 136 -10
162 -26z m3389 16 c24 -6 32 -34 40 -139 2 -33 9 -91 15 -130 17 -119 26 -300
28 -551 2 -191 -1 -256 -14 -312 -9 -39 -22 -75 -29 -81 -14 -11 -134 -31
-151 -25 -5 2 -58 10 -118 19 -145 20 -147 21 -147 98 0 34 -3 152 -6 262 -12
352 -9 522 10 625 28 158 66 220 149 241 31 8 181 3 223 -7z m-1501 -202 c105
-6 262 -17 350 -23 88 -7 248 -11 355 -10 107 1 223 -1 258 -5 l63 -6 -7 -31
c-9 -37 -8 -245 2 -327 12 -107 13 -126 13 -250 0 -86 -3 -128 -12 -136 -8 -8
-42 -9 -117 -4 -58 5 -144 7 -192 5 l-87 -3 -16 47 c-24 74 -52 94 -138 100
-39 2 -113 5 -162 5 -80 0 -98 -3 -148 -27 -58 -29 -123 -94 -133 -133 -3 -12
-15 -24 -27 -27 -42 -9 -483 -7 -607 3 -232 19 -451 33 -807 51 l-243 13 0 40
c-1 23 -3 70 -5 106 -3 36 -9 121 -14 190 -4 69 -9 185 -10 259 -1 74 -4 138
-7 143 -20 32 -1 33 752 32 435 0 829 -5 939 -12z m-2900 -668 c19 -5 22 -18
33 -177 7 -95 17 -190 22 -212 6 -22 15 -85 20 -141 5 -55 16 -130 26 -165 13
-48 17 -108 18 -239 l1 -175 -38 -12 c-21 -7 -58 -15 -83 -18 -24 -2 -62 -9
-85 -15 -43 -12 -107 -7 -168 12 -35 11 -111 58 -128 80 -11 14 -19 74 -28
208 -4 47 -10 108 -15 135 -5 28 -12 93 -16 145 -3 52 -10 113 -14 135 -21
101 -22 173 -4 256 14 68 24 89 48 111 35 32 103 54 196 64 36 3 67 8 69 10 7
6 123 4 146 -2z m3340 -87 c55 -12 61 -15 72 -47 7 -19 12 -51 12 -70 1 -19 6
-51 11 -71 6 -19 12 -49 14 -65 2 -16 13 -67 24 -114 43 -170 53 -388 28 -580
-8 -58 -22 -122 -32 -142 -15 -33 -23 -38 -63 -45 -60 -9 -348 -10 -383 0 -15
4 -29 15 -32 25 -16 57 -28 581 -16 667 5 33 14 103 20 155 11 104 34 185 59
214 28 31 104 70 151 77 66 9 70 9 135 -4z m-2796 -112 c6 -3 11 -13 11 -22 0
-27 39 -81 75 -103 70 -43 210 -70 373 -73 176 -3 209 15 227 124 6 33 11 37
43 42 21 3 66 4 102 1 35 -2 148 -8 250 -14 102 -5 246 -14 320 -20 279 -21
427 -32 480 -35 30 -2 149 -4 264 -4 l208 -1 -8 -102 c-5 -57 -8 -206 -9 -333
l0 -230 -135 1 c-74 1 -209 5 -299 8 -156 7 -165 9 -200 34 -28 21 -35 33 -33
53 3 22 -4 28 -49 50 -71 33 -216 33 -334 0 -112 -31 -152 -60 -176 -126 -11
-31 -14 -32 -78 -35 -84 -5 -509 -5 -666 0 -66 2 -174 9 -240 16 -66 7 -172
15 -235 18 -63 3 -132 8 -152 12 l-38 7 0 63 c0 35 -9 101 -20 148 -11 46 -22
122 -26 168 -3 45 -12 119 -19 163 -8 44 -17 108 -20 143 l-7 63 190 -4 c105
-3 196 -8 201 -12z m-1680 -595 c25 -13 48 -88 60 -191 6 -46 15 -109 21 -139
6 -30 13 -82 16 -115 2 -33 9 -94 14 -135 20 -160 32 -400 26 -500 -5 -94 -25
-203 -40 -218 -3 -2 -36 -6 -73 -8 -38 -1 -125 -5 -195 -9 l-126 -7 -75 35
c-96 46 -98 49 -96 284 1 99 -1 185 -4 190 -12 19 -17 359 -8 457 6 55 13 130
16 165 6 66 13 85 49 135 30 40 57 49 176 56 169 11 220 11 239 0z m3298 -130
c-5 -19 0 -39 43 -190 11 -36 24 -96 30 -135 6 -38 15 -88 20 -110 5 -22 12
-85 15 -140 3 -55 13 -158 21 -230 16 -149 18 -273 5 -308 -9 -24 -11 -24
-194 -31 -195 -7 -263 1 -290 33 -22 27 -36 135 -42 331 -6 208 -11 278 -25
352 -13 65 -12 211 0 266 17 71 49 129 78 141 55 22 160 39 251 40 89 1 93 0
88 -19z m-2679 -147 c9 -3 40 -27 67 -53 79 -73 157 -118 237 -136 63 -14 86
-15 173 -5 55 7 114 16 131 22 17 5 40 9 53 9 30 0 78 26 91 49 5 11 10 39 10
63 l0 43 172 -7 c95 -4 216 -11 268 -17 167 -18 368 -26 650 -25 179 0 278 -4
282 -11 4 -5 8 -33 8 -61 0 -28 7 -95 15 -150 13 -80 21 -214 28 -439 2 -73
-2 -84 -35 -89 -91 -15 -738 -14 -998 1 -308 17 -649 21 -1065 11 -154 -3
-317 -4 -361 -1 l-82 5 -6 112 c-16 254 -52 616 -66 666 l-9 33 209 -7 c116
-4 218 -10 228 -13z"/>
<path d="M7415 4360 c-3 -5 -1 -10 4 -10 6 0 11 5 11 10 0 6 -2 10 -4 10 -3 0
-8 -4 -11 -10z"/>
<path d="M3280 4610 c-24 -15 -14 -175 21 -342 8 -37 17 -52 38 -63 42 -21 66
-14 65 21 -2 30 -11 78 -20 103 -3 8 -7 67 -10 130 -4 74 -11 124 -20 139 -15
23 -48 29 -74 12z"/>
<path d="M3533 4565 c-42 -29 -64 -149 -43 -227 29 -103 155 -163 221 -105 36
30 49 59 49 104 0 68 -30 130 -91 189 -62 58 -95 68 -136 39z m101 -132 c32
-64 28 -133 -9 -133 -24 0 -48 58 -41 99 3 20 7 42 8 49 3 22 27 13 42 -15z"/>
<path d="M11935 4383 c-38 -8 -65 -26 -65 -44 0 -9 13 -31 29 -48 25 -27 36
-31 88 -33 65 -3 134 -1 138 4 1 2 6 18 10 35 6 28 2 37 -23 63 -28 27 -36 30
-94 29 -35 -1 -72 -3 -83 -6z"/>
<path d="M12287 4372 c-10 -2 -23 -16 -28 -30 -9 -24 -6 -31 31 -65 52 -49 90
-49 104 1 7 27 6 38 -11 60 -20 26 -62 41 -96 34z"/>
<path d="M3772 3761 c-28 -17 -8 -55 48 -93 30 -21 61 -42 68 -48 30 -26 0
-158 -53 -230 -14 -19 -25 -44 -25 -56 0 -30 53 -68 83 -60 55 14 145 211 132
290 -14 78 -53 125 -140 168 -62 31 -96 40 -113 29z"/>
<path d="M3306 3717 c-28 -20 -33 -141 -12 -257 22 -115 29 -131 71 -152 27
-14 36 -14 51 -4 15 11 16 17 6 42 -29 69 -40 185 -27 290 5 45 3 56 -15 74
-23 23 -49 26 -74 7z"/>
<path d="M3580 3691 c-41 -15 -46 -21 -63 -71 -25 -74 -19 -151 14 -186 72
-77 187 -82 235 -8 45 68 -35 245 -126 276 -8 3 -35 -2 -60 -11z m78 -113 c20
-67 22 -97 6 -113 -19 -18 -25 -19 -49 -1 -15 10 -17 20 -11 52 4 21 8 46 8
54 1 17 17 40 28 40 5 0 13 -15 18 -32z"/>
<path d="M12371 3486 c-18 -22 -2 -64 34 -92 48 -36 87 -10 69 49 -15 52 -75
77 -103 43z"/>
<path d="M12012 3468 c-19 -19 -14 -53 11 -74 35 -32 74 -44 137 -44 50 0 61
3 70 21 15 27 3 76 -23 94 -27 19 -177 21 -195 3z"/>
<path d="M75 3356 c-78 -34 -93 -145 -29 -210 30 -29 56 -33 74 -11 10 13 11
20 1 39 -18 32 -10 80 13 84 17 4 18 -2 11 -80 -7 -88 -36 -184 -93 -311 -27
-60 -33 -83 -25 -95 19 -32 49 -25 87 19 20 24 36 46 36 51 0 5 19 -12 43 -37
34 -35 51 -45 76 -45 74 0 153 59 145 107 -3 15 -7 29 -9 31 -1 2 -30 -10 -64
-27 -33 -17 -67 -31 -75 -31 -14 0 -49 51 -45 65 1 3 -2 26 -6 50 -7 52 16
113 78 205 28 42 34 57 26 71 -12 24 -51 34 -78 20 -18 -10 -21 -7 -32 28 -19
64 -82 100 -134 77z"/>
<path d="M2393 3350 c-76 -34 -130 -163 -85 -203 34 -31 59 -21 86 32 54 105
84 108 159 14 67 -84 76 -92 130 -108 40 -12 48 -11 76 6 40 24 64 75 47 101
-15 24 -47 23 -81 -4 -25 -20 -30 -20 -54 -7 -14 8 -47 43 -73 77 -25 35 -57
71 -70 82 -36 28 -87 32 -135 10z"/>
<path d="M422 3154 c-27 -19 -28 -28 -1 -53 23 -22 113 -38 148 -26 33 10 28
56 -8 78 -36 21 -109 22 -139 1z"/>
<path d="M2426 3091 c-27 -30 -34 -122 -12 -156 21 -31 56 -47 74 -33 6 6 12
28 12 49 0 21 3 40 8 43 4 2 38 -15 76 -39 84 -53 164 -80 211 -71 62 12 101
99 68 154 -19 31 -54 25 -71 -10 -29 -62 -83 -55 -201 26 -81 56 -137 68 -165
37z"/>
<path d="M461 3050 c-53 -13 -63 -38 -29 -70 22 -20 86 -27 135 -14 36 10 40
44 9 71 -28 24 -56 27 -115 13z"/>
<path d="M3331 2893 c-24 -16 -24 -18 -18 -137 8 -151 18 -192 55 -229 36 -35
69 -32 57 6 -4 12 -9 90 -11 172 -3 180 0 157 -24 183 -25 26 -29 27 -59 5z"/>
<path d="M3532 2899 c-56 -21 -74 -179 -30 -267 46 -94 149 -118 203 -48 35
47 42 95 20 154 -43 113 -128 185 -193 161z m86 -164 c12 -45 8 -95 -8 -95
-26 0 -38 51 -29 123 4 33 25 17 37 -28z"/>
<path d="M3790 2870 c-9 -16 -3 -28 40 -75 41 -46 50 -62 50 -93 0 -43 -23
-82 -74 -124 -45 -37 -47 -67 -5 -92 39 -23 65 -16 121 33 90 80 105 183 40
271 -36 49 -107 100 -139 100 -12 0 -27 -9 -33 -20z"/>
<path d="M12034 2649 c-19 -21 -10 -60 21 -89 33 -31 172 -42 191 -15 20 28
17 61 -8 89 -20 22 -32 25 -106 28 -67 3 -86 0 -98 -13z"/>
<path d="M12403 2614 c-16 -24 -16 -28 1 -59 30 -55 90 -66 102 -19 9 34 -14
84 -43 95 -35 13 -41 12 -60 -17z"/>
<path d="M3719 1998 c-11 -37 -4 -51 57 -119 37 -41 70 -83 74 -94 13 -34 -58
-186 -106 -225 -20 -17 -18 -46 6 -70 39 -39 90 -18 140 57 107 158 107 233
-1 343 -71 73 -121 110 -147 110 -12 0 -22 -1 -23 -2z"/>
<path d="M3294 1955 c-14 -22 -16 -47 -11 -183 7 -193 18 -242 56 -265 39 -23
74 -23 67 1 -24 78 -32 160 -29 301 5 164 3 171 -44 171 -13 0 -30 -11 -39
-25z"/>
<path d="M3528 1900 c-103 -55 -133 -192 -63 -285 24 -33 117 -85 150 -85 30
0 82 36 99 67 41 80 -28 264 -115 307 -18 9 -33 16 -33 16 -1 -1 -18 -10 -38
-20z m87 -142 c25 -84 17 -126 -27 -141 -26 -9 -68 36 -68 73 0 48 43 118 72
120 4 0 14 -23 23 -52z"/>
<path d="M12082 1688 c-22 -22 -14 -65 19 -92 26 -22 40 -26 93 -26 35 0 67 5
74 12 20 20 14 67 -13 93 -21 22 -33 25 -93 25 -39 0 -73 -5 -80 -12z"/>
<path d="M12402 1688 c-19 -19 -14 -54 14 -87 36 -44 69 -42 84 5 11 32 10 39
-7 63 -22 29 -70 40 -91 19z"/>
<path d="M7990 1163 c-80 -42 -145 -46 -335 -19 -111 15 -168 17 -385 11 -140
-3 -284 -10 -320 -15 -99 -14 -206 -54 -271 -102 -26 -20 -27 -20 -67 1 -78
40 -149 50 -416 62 -240 11 -441 6 -641 -15 -46 -5 -163 13 -219 35 -64 24
-82 24 -89 0 -11 -45 66 -102 171 -127 56 -14 95 -15 232 -8 423 21 835 3 915
-39 11 -6 32 -23 47 -39 34 -37 61 -35 103 6 44 45 142 92 230 112 111 25 608
32 743 10 209 -33 310 -18 412 60 55 42 62 65 28 88 -33 23 -65 18 -138 -21z"/>
<path d="M9395 1100 c-44 -4 -136 -22 -205 -40 -174 -45 -222 -52 -326 -48
-80 3 -98 7 -154 36 -60 32 -65 33 -77 16 -26 -36 7 -84 90 -130 49 -27 59
-29 167 -29 92 1 137 6 225 29 313 79 478 84 666 19 116 -39 259 -152 259
-203 0 -40 46 -100 77 -100 7 0 29 15 49 32 19 18 61 52 92 75 189 141 349
170 662 117 289 -49 414 -31 558 78 60 46 67 74 27 113 -32 33 -48 31 -92 -8
-58 -50 -87 -66 -155 -82 -88 -21 -167 -18 -363 10 -93 13 -199 25 -235 24
-164 0 -356 -69 -456 -163 -31 -29 -81 -54 -88 -44 -2 2 -13 20 -25 41 -61
101 -284 230 -436 251 -76 11 -180 13 -260 6z"/>
<path d="M6633 624 c-6 -3 -23 -29 -37 -58 -22 -44 -65 -94 -167 -188 -27 -25
-24 -53 9 -76 31 -22 55 -17 110 25 18 14 34 23 36 22 1 -2 7 -25 13 -51 l10
-48 -51 0 c-70 0 -92 -8 -104 -36 -16 -34 20 -73 68 -75 19 0 98 -8 176 -17
77 -8 148 -12 157 -9 21 8 21 45 2 71 -8 10 -38 27 -67 36 -42 14 -56 25 -69
51 -22 44 -31 142 -18 199 22 107 22 104 -6 133 -27 26 -38 30 -62 21z"/>
<path d="M10011 503 c-12 -8 -21 -21 -21 -29 0 -8 -4 -14 -10 -14 -12 0 -40
-65 -40 -94 0 -12 6 -31 14 -42 19 -26 16 -39 -17 -96 -24 -40 -34 -48 -77
-58 -53 -13 -100 -55 -100 -90 0 -10 12 -33 27 -50 22 -27 31 -31 57 -26 17 4
42 18 56 31 32 31 32 31 111 -1 101 -41 203 -35 257 15 27 27 27 29 -2 65 -22
29 -24 29 -57 16 -64 -27 -209 -4 -209 33 0 7 16 37 35 67 42 64 74 161 70
208 -5 59 -55 93 -94 65z"/>
</g>
</svg>
