<?xml version="1.0" standalone="no"?>
<!DOCTYPE svg PUBLIC "-//W3C//DTD SVG 20010904//EN"
 "http://www.w3.org/TR/2001/REC-SVG-20010904/DTD/svg10.dtd">
<svg version="1.0" xmlns="http://www.w3.org/2000/svg"
 width="1176.000000pt" height="464.000000pt" viewBox="0 0 1176.000000 464.000000"
 preserveAspectRatio="xMidYMid meet">
<metadata>
Created by potrace 1.16, written by Peter Selinger 2001-2019
</metadata>
<g transform="translate(0.000000,464.000000) scale(0.100000,-0.100000)"
fill="#000000" stroke="none">
<path d="M260 4631 c-52 -16 -90 -42 -139 -98 -61 -69 -87 -120 -105 -204 -16
-80 -7 -141 38 -244 28 -66 43 -87 88 -123 29 -24 69 -52 89 -62 57 -30 60
-38 64 -173 3 -76 13 -158 26 -212 11 -48 19 -88 17 -89 -2 -2 -32 -17 -68
-35 -73 -35 -123 -90 -167 -181 -55 -112 -39 -278 37 -395 50 -76 82 -108 143
-139 l48 -24 4 -103 c1 -57 8 -124 13 -149 6 -25 14 -78 18 -117 6 -65 5 -73
-10 -73 -46 0 -166 -104 -166 -144 0 -6 -7 -24 -15 -39 -79 -152 -40 -314 111
-459 48 -45 132 -88 173 -88 29 0 30 -1 20 -28 -8 -20 -7 -45 5 -97 8 -38 25
-117 36 -175 12 -58 24 -115 27 -127 4 -19 -1 -23 -38 -33 -78 -20 -99 -32
-145 -84 -52 -59 -61 -87 -75 -216 -11 -95 -11 -95 20 -161 67 -146 229 -227
436 -217 66 4 92 10 149 39 63 31 72 39 101 94 17 33 34 70 37 82 6 23 9 23
161 23 86 0 167 4 180 9 33 13 30 42 -10 84 -26 28 -42 35 -85 40 -29 4 -76 4
-105 1 -28 -4 -75 -4 -105 0 -51 7 -55 9 -67 44 -27 75 -141 212 -177 212 -6
0 -16 6 -22 12 -7 7 -34 20 -60 29 -54 18 -50 5 -87 248 -17 110 -31 171 -42
183 -9 10 -14 20 -12 22 2 3 47 18 99 35 150 49 206 102 224 210 l11 66 85 0
c47 -1 148 -5 225 -9 123 -8 142 -7 154 7 18 23 6 69 -27 100 -25 23 -39 26
-162 37 -74 6 -176 14 -227 17 l-91 6 -31 47 c-44 68 -147 157 -249 216 -2 1
-9 40 -17 86 -7 46 -20 111 -28 143 -13 49 -28 150 -31 200 -1 6 30 20 68 32
55 17 78 31 109 65 52 57 82 112 97 178 19 85 18 83 38 74 22 -11 317 -17 400
-9 79 8 107 31 98 79 -4 17 -17 42 -31 55 l-24 25 -213 -3 c-117 -1 -227 -4
-244 -7 -31 -6 -32 -4 -49 45 -21 65 -82 121 -198 181 -52 27 -88 53 -92 65
-23 73 -28 107 -40 255 -7 91 -11 168 -9 171 2 4 26 9 53 13 114 15 229 116
251 221 l6 30 65 -3 c68 -4 131 14 153 43 11 14 170 38 246 37 80 -1 108 64
50 118 -35 33 -78 39 -189 28 -42 -4 -125 -10 -185 -13 -60 -3 -115 -10 -123
-16 -7 -7 -15 -10 -16 -8 -2 2 -13 20 -24 40 -22 39 -26 44 -105 139 -47 56
-69 73 -164 122 -109 57 -148 66 -204 49z m65 -140 c3 -5 33 -19 68 -30 90
-31 121 -53 176 -128 81 -110 86 -190 17 -294 -61 -92 -217 -116 -316 -49 -14
9 -41 28 -62 41 -47 30 -64 68 -79 171 -12 81 -11 84 13 133 59 114 157 198
183 156z m168 -1242 c23 -12 68 -37 100 -58 50 -31 59 -42 73 -86 28 -91 29
-139 5 -189 -29 -58 -77 -109 -121 -127 -54 -22 -194 -17 -253 9 -41 19 -51
29 -74 78 -22 50 -25 66 -21 139 4 68 9 91 30 122 80 122 167 159 261 112z
m143 -1208 c50 -38 117 -109 134 -141 28 -55 35 -122 16 -159 -36 -69 -163
-131 -269 -131 -121 0 -176 31 -224 124 -32 62 -28 114 16 211 32 71 59 100
103 112 43 12 202 0 224 -16z m124 -1174 c58 -29 68 -38 98 -94 68 -127 49
-222 -58 -275 -63 -33 -126 -36 -234 -13 -132 28 -166 78 -143 210 15 92 73
168 136 181 14 3 40 9 56 13 52 15 78 11 145 -22z"/>
<path d="M3873 4383 c-16 -6 -17 -72 -2 -128 5 -22 13 -111 17 -199 7 -149 9
-159 31 -177 29 -24 36 -24 61 1 17 17 20 33 20 123 0 123 -17 208 -60 304
-32 71 -43 84 -67 76z"/>
<path d="M4419 4373 c-4 -67 18 -97 134 -178 32 -22 60 -49 63 -60 8 -33 -31
-111 -82 -162 -40 -40 -48 -53 -48 -87 -1 -35 3 -42 27 -54 26 -13 32 -12 62
10 76 53 165 204 165 275 -1 78 -67 149 -210 226 -88 47 -110 53 -111 30z"/>
<path d="M10733 4380 c-17 -4 -91 -10 -165 -14 -188 -10 -375 -59 -417 -110
-7 -8 -18 -48 -26 -88 -19 -107 -20 -108 -68 -103 -23 2 -161 7 -307 10 -146
3 -294 7 -330 10 -126 8 -459 15 -800 15 -190 0 -460 5 -600 10 -140 5 -352
12 -470 15 -118 4 -251 8 -295 10 -44 2 -181 7 -305 10 -124 3 -333 10 -465
15 -132 5 -341 11 -465 12 l-225 3 -1 -35 c-1 -48 3 -57 34 -68 15 -6 137 -13
272 -17 135 -3 351 -10 480 -15 129 -5 318 -12 420 -15 102 -3 230 -7 285 -10
55 -3 213 -7 350 -10 138 -4 286 -8 330 -10 44 -2 269 -6 500 -10 444 -6 571
-9 965 -26 135 -5 343 -12 462 -16 l216 -6 -4 -46 c-3 -25 -7 -158 -9 -296 -3
-215 -8 -376 -19 -612 -1 -29 -4 -53 -6 -55 -3 -2 -133 -1 -290 2 l-285 5 -8
50 c-5 28 -15 73 -23 101 -8 28 -14 61 -14 74 0 13 -11 38 -25 56 -34 44 -108
66 -213 63 -42 -1 -144 2 -227 6 -212 11 -330 -14 -404 -87 -36 -35 -69 -132
-74 -218 l-3 -55 -564 2 c-311 2 -653 8 -760 13 -107 6 -397 15 -645 20 -488
9 -543 12 -623 41 -65 24 -67 24 -92 -1 -44 -44 -10 -119 65 -139 24 -7 184
-13 395 -16 195 -3 414 -7 485 -10 72 -3 207 -8 300 -11 94 -3 206 -10 250
-14 44 -4 172 -8 285 -10 495 -5 870 -16 879 -25 5 -6 12 -41 16 -80 10 -98
12 -668 3 -735 -4 -30 -10 -82 -13 -115 -9 -106 -6 -100 -61 -95 -27 3 -157 4
-290 2 l-240 -2 -13 97 c-25 192 -95 276 -271 329 -37 11 -75 12 -205 3 -88
-6 -178 -8 -200 -5 -53 8 -242 -27 -297 -55 -66 -33 -129 -88 -145 -128 -8
-19 -18 -79 -20 -133 l-6 -97 -71 7 c-78 7 -416 9 -591 4 -60 -2 -171 -1 -245
3 -108 6 -139 4 -153 -7 -26 -19 -25 -74 1 -100 21 -21 28 -22 509 -24 268 -2
502 -7 518 -12 l30 -8 7 -120 c10 -190 10 -239 -1 -429 -6 -99 -11 -259 -11
-356 l0 -177 -42 -6 c-24 -4 -88 -2 -142 4 -56 6 -332 10 -628 10 -508 -1
-528 -1 -538 -20 -14 -26 -12 -63 4 -86 14 -18 32 -19 533 -21 285 -1 573 -6
640 -11 66 -5 133 -7 147 -5 21 4 26 1 31 -23 24 -124 59 -211 103 -257 15
-16 63 -47 107 -70 78 -40 83 -41 205 -46 69 -3 166 -3 215 2 50 4 146 11 215
15 142 8 170 20 234 95 30 35 40 59 58 140 l22 97 136 1 c377 3 945 0 1025 -5
50 -3 182 -5 295 -5 727 2 1289 7 1580 13 184 4 413 9 509 10 167 3 176 5 193
26 14 17 17 32 12 59 -12 68 -9 67 -264 52 -294 -18 -1099 -37 -1355 -34 -255
4 -445 4 -560 0 -60 -3 -212 -1 -337 4 -124 5 -441 9 -703 9 -276 1 -488 5
-503 11 -24 9 -24 11 -16 67 10 67 10 128 1 644 -4 213 -3 389 1 392 5 3 132
8 284 12 316 8 285 18 289 -95 3 -83 23 -159 50 -187 12 -13 49 -32 82 -44 70
-23 212 -26 472 -10 164 10 253 27 302 57 37 22 84 105 104 182 l13 52 66 -2
c36 0 322 2 635 6 667 9 684 9 1095 4 173 -2 325 0 337 4 12 5 25 16 28 26 7
23 -20 88 -42 99 -10 5 -259 7 -553 5 -294 -2 -710 -6 -925 -7 -214 -2 -442
-1 -505 2 l-115 5 2 281 c3 412 2 518 -1 546 -2 14 -7 73 -11 131 l-7 106 29
8 c33 8 520 8 534 0 5 -4 9 -26 9 -50 0 -24 5 -47 10 -50 6 -4 9 -12 8 -18 -8
-40 85 -143 164 -181 64 -31 111 -34 425 -24 199 6 333 20 383 39 14 6 39 34
57 65 31 54 36 69 49 165 l6 47 254 -4 c144 -2 265 1 279 6 20 8 25 17 25 44
0 18 -8 44 -19 57 -24 30 -83 36 -338 35 l-193 -1 -6 41 c-3 23 -3 131 0 240
3 110 9 315 12 457 l6 257 267 0 c278 0 291 2 291 42 0 28 -26 74 -47 84 -10
4 -124 9 -253 11 -129 2 -240 5 -245 7 -14 5 -10 135 4 149 16 16 13 49 -5 75
-23 33 -75 51 -209 73 -66 10 -142 23 -168 29 -54 11 -59 11 -104 0z m205
-149 c63 -11 117 -22 120 -26 4 -4 8 -86 8 -183 1 -97 2 -206 3 -242 1 -102
-16 -487 -23 -498 -2 -4 -2 -56 0 -117 11 -322 2 -457 -35 -520 -13 -23 -27
-31 -61 -37 -74 -13 -572 -27 -620 -17 -25 4 -48 8 -51 9 -4 0 -20 14 -37 31
-49 50 -55 98 -48 376 3 134 8 248 10 252 3 4 7 138 10 297 5 305 20 507 41
558 8 17 23 40 34 50 31 28 160 54 330 66 85 6 157 13 160 15 8 9 43 5 159
-14z m-1679 -1087 c30 -3 58 -7 62 -10 4 -2 12 -37 19 -77 6 -39 15 -94 20
-122 5 -27 12 -72 14 -100 3 -27 10 -102 18 -165 14 -121 18 -766 5 -870 -3
-30 -9 -93 -12 -140 -6 -84 -33 -167 -64 -200 -29 -31 -94 -50 -184 -55 -365
-22 -497 -16 -528 22 -18 21 -25 292 -9 380 7 43 13 241 15 543 5 506 11 606
45 684 28 65 71 97 163 116 40 9 323 5 436 -6z m-1622 -1095 c54 -26 77 -69
93 -170 6 -40 15 -99 21 -129 6 -30 12 -173 14 -318 2 -145 7 -276 10 -293 7
-29 17 -307 16 -409 -1 -30 -5 -68 -10 -85 -6 -16 -9 -70 -9 -120 0 -115 -18
-238 -43 -292 -31 -65 -66 -81 -190 -88 -57 -2 -149 -9 -204 -14 -154 -13
-298 -1 -362 32 -59 30 -73 48 -99 127 -16 48 -18 90 -17 335 1 154 4 343 9
420 4 77 7 187 6 245 -4 484 -3 536 12 589 17 62 36 85 91 114 83 42 170 57
385 63 113 3 207 8 209 10 8 8 25 4 68 -17z"/>
<path d="M10570 3654 c-92 -52 -141 -118 -184 -245 -27 -83 -29 -160 -4 -219
16 -37 76 -96 112 -110 46 -17 167 25 174 61 2 9 -5 26 -15 38 -19 23 -19 23
-71 6 -92 -30 -122 -6 -122 98 1 64 18 115 61 177 30 44 113 110 138 110 23 0
9 -29 -29 -61 -45 -39 -48 -49 -20 -74 36 -32 124 -2 149 52 24 51 24 89 0
126 -47 71 -112 85 -189 41z"/>
<path d="M8908 2490 c-50 -53 -73 -107 -56 -129 20 -25 29 -29 49 -24 12 4 19
0 19 -10 0 -8 8 -25 19 -38 15 -18 28 -23 61 -22 56 3 117 -28 126 -63 11 -43
-69 -127 -134 -140 l-32 -6 0 91 c0 78 -3 94 -20 111 -11 11 -27 20 -35 20
-20 0 -37 -45 -31 -84 18 -113 17 -133 -9 -150 -21 -14 -23 -19 -13 -41 6 -14
31 -34 55 -46 70 -34 154 -14 231 55 26 23 49 70 63 126 16 68 -32 149 -114
191 -32 17 -38 24 -32 42 3 12 9 40 12 63 5 36 2 44 -23 68 -44 40 -88 36
-136 -14z"/>
<path d="M7229 1263 c-87 -39 -149 -180 -156 -353 -4 -94 -3 -107 15 -128 11
-13 37 -26 57 -29 l36 -6 -8 39 c-8 37 -9 162 -1 169 2 2 37 -1 78 -6 41 -5
89 -7 107 -4 38 7 48 -12 38 -78 -10 -64 9 -125 41 -133 35 -9 47 7 54 70 17
154 -26 340 -94 411 -66 69 -99 78 -167 48z m109 -108 c20 -26 48 -112 39
-121 -3 -3 -14 -1 -25 5 -12 6 -36 11 -55 11 -19 0 -48 3 -65 6 l-31 6 19 38
c20 40 63 80 86 80 7 0 21 -11 32 -25z"/>
<path d="M4192 4323 c-34 -7 -82 -79 -82 -122 0 -20 -2 -54 -6 -77 -13 -89 47
-197 124 -224 41 -14 45 -13 88 9 67 36 98 94 98 185 1 81 -21 137 -78 199
-30 33 -39 37 -77 36 -24 -1 -54 -4 -67 -6z m100 -117 c39 -80 29 -179 -21
-206 -39 -20 -91 33 -91 95 0 14 -7 41 -15 60 -13 33 -13 36 8 49 76 47 98 48
119 2z"/>
<path d="M4642 3168 c-25 -25 -6 -68 75 -171 41 -51 53 -72 48 -89 -14 -41
-75 -136 -98 -151 -76 -49 -77 -114 -4 -140 59 -21 200 142 221 255 9 48 -11
96 -71 167 -111 134 -143 157 -171 129z"/>
<path d="M3985 3119 c-8 -11 -7 -210 0 -243 2 -12 7 -46 10 -76 4 -48 10 -59
41 -87 30 -27 39 -30 59 -21 20 9 22 14 14 40 -4 16 -11 91 -14 166 -8 157
-18 207 -45 222 -24 13 -57 13 -65 -1z"/>
<path d="M4335 3080 c-23 -9 -63 -61 -68 -87 -2 -10 -11 -36 -21 -58 -44 -100
28 -252 129 -271 50 -9 90 3 126 39 43 44 59 86 59 156 0 67 -10 100 -47 154
-45 66 -117 93 -178 67z m99 -119 c60 -66 18 -201 -62 -201 -71 0 -75 159 -4
203 35 21 45 21 66 -2z"/>
<path d="M3003 2713 c-48 -33 -16 -69 95 -108 143 -51 252 -113 252 -144 0
-11 -28 -39 -67 -69 -38 -27 -113 -89 -168 -136 -55 -47 -103 -86 -106 -86 -4
0 -10 55 -13 123 -16 281 -15 278 -39 298 -13 11 -34 18 -52 16 l-30 -2 3
-120 c2 -66 5 -130 7 -142 2 -13 9 -92 16 -178 12 -139 15 -157 36 -180 13
-14 33 -25 44 -25 12 0 52 33 102 86 79 84 194 179 287 238 95 61 134 131 108
193 -6 15 -11 31 -10 35 1 4 -21 27 -49 52 -62 56 -189 117 -301 145 -101 24
-87 24 -115 4z"/>
<path d="M2530 2563 c-55 -9 -119 -35 -124 -49 -10 -27 -6 -74 7 -79 6 -2 81
-5 165 -8 124 -3 156 -1 168 10 24 25 16 59 -21 92 -29 25 -44 31 -83 31 -26
0 -56 2 -67 4 -11 2 -31 2 -45 -1z"/>
<path d="M2550 2373 c-19 -2 -65 -11 -103 -19 -56 -14 -68 -20 -73 -40 -9 -34
20 -74 54 -75 15 -1 107 -2 206 -3 167 -1 179 0 192 19 21 29 17 43 -21 79
-45 43 -115 54 -255 39z"/>
<path d="M4701 2041 c-24 -16 -19 -47 12 -72 16 -13 54 -48 84 -76 54 -51 55
-54 51 -96 -5 -43 -26 -82 -105 -191 -24 -32 -43 -65 -43 -73 0 -42 71 -106
98 -89 21 13 144 205 162 254 31 80 17 147 -46 234 -62 84 -169 139 -213 109z"/>
<path d="M4067 1993 c-17 -16 6 -332 28 -404 8 -24 52 -51 78 -47 25 3 25 -1
8 163 -21 199 -32 259 -52 278 -18 17 -50 23 -62 10z"/>
<path d="M4400 1931 c-98 -52 -107 -242 -16 -340 111 -120 246 -59 246 112 0
66 -37 147 -93 205 -47 48 -80 54 -137 23z m84 -113 c24 -40 38 -98 32 -133
-12 -64 -50 -77 -88 -31 -26 31 -24 125 3 160 25 32 34 33 53 4z"/>
<path d="M4681 816 c-27 -32 -5 -61 79 -105 94 -49 112 -72 112 -140 -1 -58
-27 -115 -83 -183 -53 -63 -52 -106 2 -133 19 -10 35 -12 52 -6 35 14 86 77
121 151 41 86 44 190 8 260 -43 83 -142 154 -230 166 -37 5 -51 2 -61 -10z"/>
<path d="M4085 788 l-28 -22 6 -150 c8 -227 29 -289 100 -302 35 -6 40 16 29
126 -5 47 -7 138 -5 204 l5 119 -29 23 c-35 29 -44 29 -78 2z"/>
<path d="M4475 773 c-12 -2 -34 -29 -55 -66 -31 -55 -35 -70 -34 -132 1 -88
28 -151 80 -191 82 -63 171 -24 200 86 24 93 -10 194 -90 268 -44 40 -56 44
-101 35z m79 -207 c1 -35 -5 -61 -17 -80 -23 -35 -35 -25 -43 35 -5 36 -1 55
16 89 19 38 23 41 32 25 6 -10 11 -41 12 -69z"/>
</g>
</svg>
