<?xml version="1.0" standalone="no"?>
<!DOCTYPE svg PUBLIC "-//W3C//DTD SVG 20010904//EN"
 "http://www.w3.org/TR/2001/REC-SVG-20010904/DTD/svg10.dtd">
<svg version="1.0" xmlns="http://www.w3.org/2000/svg"
 width="1102.000000pt" height="437.000000pt" viewBox="0 0 1102.000000 437.000000"
 preserveAspectRatio="xMidYMid meet">
<metadata>
Created by potrace 1.16, written by Peter Selinger 2001-2019
</metadata>
<g transform="translate(0.000000,437.000000) scale(0.100000,-0.100000)"
fill="#000000" stroke="none">
<path d="M4987 4363 c-22 -21 6 -59 104 -145 49 -42 79 -97 79 -144 0 -34 -15
-72 -71 -179 -44 -85 -68 -142 -64 -154 8 -26 45 -57 77 -65 38 -9 50 8 126
162 82 167 90 218 47 305 -32 66 -154 189 -209 212 -37 16 -78 20 -89 8z"/>
<path d="M1400 4350 c-69 -12 -116 -35 -158 -78 -62 -63 -82 -115 -88 -228
l-6 -99 41 -80 c47 -91 89 -134 165 -165 l53 -21 13 -72 c7 -40 18 -97 25
-127 7 -30 16 -74 19 -96 6 -40 4 -42 -27 -55 -84 -34 -135 -90 -168 -187 -33
-95 -34 -138 -5 -226 42 -126 129 -241 202 -268 27 -10 32 -16 31 -42 -2 -64
15 -253 28 -306 8 -30 17 -83 21 -117 6 -56 5 -63 -12 -69 -59 -19 -79 -31
-118 -70 -70 -72 -97 -132 -104 -229 l-5 -83 48 -95 c62 -122 93 -156 180
-192 86 -35 82 -32 64 -50 -18 -19 -11 -101 26 -300 44 -239 48 -263 42 -278
-3 -7 -34 -24 -69 -37 -90 -33 -104 -44 -138 -117 -46 -97 -44 -155 8 -259 22
-45 55 -93 71 -107 53 -44 141 -80 208 -85 84 -6 206 35 269 91 l44 39 319 -2
c281 -1 321 1 335 15 9 9 16 24 16 34 0 26 -29 80 -48 90 -9 5 -147 9 -305 10
-159 0 -292 3 -298 6 -5 4 -9 13 -9 21 0 23 -49 118 -82 158 -33 40 -107 93
-144 102 -13 3 -28 14 -33 23 -9 18 -28 121 -36 196 -23 221 -51 364 -76 391
l-21 23 38 7 c61 11 157 54 185 83 14 15 39 47 56 72 l32 45 275 -1 c225 -1
276 2 281 13 12 33 4 78 -19 103 -22 24 -32 26 -137 32 -63 4 -175 4 -250 1
-148 -6 -147 -7 -156 49 -16 112 -162 277 -243 277 -11 0 -22 6 -24 13 -2 6
-10 37 -19 67 -30 104 -36 145 -42 271 -4 69 -7 134 -8 144 -2 15 12 22 68 37
154 39 195 68 225 160 16 49 19 53 51 55 273 14 331 15 435 3 92 -11 116 -11
129 0 22 18 19 62 -8 101 -22 33 -25 34 -127 47 -90 11 -351 11 -444 -1 -14
-1 -27 11 -45 44 -39 70 -69 101 -148 158 -40 28 -90 68 -112 89 -39 37 -40
42 -70 190 -39 191 -39 188 2 196 82 17 227 157 248 241 13 52 -10 46 219 50
80 1 163 8 185 14 22 6 81 14 130 17 115 7 131 10 139 30 9 22 -28 78 -61 93
-26 12 -185 17 -202 7 -23 -14 -191 -25 -299 -19 l-123 6 -27 39 c-43 63 -90
119 -119 141 -23 19 -211 79 -237 76 -6 -1 -31 -5 -56 -9z m85 -136 c13 -8 47
-22 75 -29 67 -18 92 -35 130 -89 38 -56 45 -90 30 -145 -24 -90 -152 -187
-233 -178 -57 7 -137 36 -164 60 -77 69 -66 265 20 345 22 20 85 50 110 52 4
0 19 -7 32 -16z m101 -1051 c28 -11 72 -35 98 -54 139 -100 149 -123 120 -266
-8 -40 -48 -73 -111 -93 -76 -23 -76 -23 -144 -9 -144 31 -221 219 -144 354
37 66 73 97 105 92 14 -3 48 -14 76 -24z m193 -1232 c78 -62 101 -164 57 -256
-31 -65 -69 -99 -133 -120 -44 -14 -60 -15 -101 -5 -72 17 -104 40 -136 100
-48 88 -29 182 54 271 l49 52 85 -5 c76 -5 89 -9 125 -37z m90 -1302 c37 -27
71 -96 71 -143 0 -26 -10 -45 -42 -80 -36 -39 -52 -48 -100 -58 -101 -21 -198
26 -226 108 -28 85 38 184 123 184 22 0 47 5 55 11 23 15 84 4 119 -22z"/>
<path d="M9410 4314 c-157 -16 -239 -37 -340 -87 -77 -39 -97 -70 -104 -167
-2 -36 -5 -66 -5 -67 -3 -7 -754 7 -931 17 -289 16 -2252 5 -2290 -13 -19 -9
-26 -21 -28 -49 -5 -58 23 -71 140 -64 258 15 1895 25 2163 13 88 -4 267 -11
399 -17 131 -6 242 -12 245 -15 4 -2 63 0 131 5 69 5 142 6 163 3 33 -5 38 -9
35 -27 -3 -12 1 -60 8 -107 6 -46 13 -133 14 -194 2 -121 6 -214 14 -290 3
-27 6 -91 7 -142 0 -51 4 -107 9 -126 4 -19 4 -40 0 -46 -7 -12 -205 -28 -374
-31 l-89 -1 7 83 c11 117 10 120 -26 150 -29 24 -41 27 -107 28 -41 0 -101 5
-133 12 -93 19 -438 -3 -543 -35 -113 -35 -146 -50 -209 -97 -60 -43 -91 -93
-102 -158 l-6 -39 -102 -8 c-55 -4 -155 -6 -221 -4 -155 4 -189 3 -315 -13
-67 -8 -213 -13 -405 -12 -249 0 -312 3 -370 18 -78 19 -248 32 -288 23 -46
-12 -45 -87 3 -112 26 -13 49 -14 625 -17 6 0 123 4 260 8 277 9 280 9 450 -6
66 -6 174 -8 240 -4 l121 7 14 -154 c7 -85 14 -167 16 -184 5 -66 16 -160 19
-165 3 -5 14 -93 30 -245 2 -16 9 -59 15 -95 6 -36 15 -92 20 -125 4 -33 11
-68 15 -77 8 -21 -14 -25 -33 -5 -10 9 -69 13 -215 14 -111 1 -216 5 -233 8
-36 6 -37 9 -53 130 -18 135 -33 188 -58 212 -37 36 -62 45 -101 38 -20 -3
-75 -6 -122 -6 -125 0 -293 -18 -390 -40 -47 -11 -105 -24 -130 -30 -24 -5
-51 -15 -58 -22 -42 -34 -106 -177 -115 -252 -3 -28 -8 -39 -18 -36 -8 2 -95
3 -194 2 -168 -1 -181 -2 -197 -21 -22 -27 -11 -67 26 -94 25 -19 41 -21 191
-21 96 0 168 -4 173 -10 15 -16 22 -149 27 -565 3 -212 10 -439 16 -504 5 -65
8 -120 7 -122 -2 -1 -86 -5 -188 -9 -210 -7 -230 -13 -230 -70 0 -26 7 -38 28
-54 26 -18 47 -20 222 -23 l194 -3 7 -30 c13 -60 38 -102 66 -113 15 -7 58
-16 95 -22 37 -6 79 -15 93 -20 15 -6 155 -10 323 -11 371 -1 351 -2 369 13
23 18 53 84 53 115 0 59 -18 57 417 47 219 -5 855 -9 1413 -9 702 -1 1050 -5
1130 -13 146 -15 703 -27 793 -18 75 8 97 23 97 66 0 68 -42 96 -129 86 -118
-13 -562 -6 -896 14 -143 8 -368 10 -785 5 -719 -9 -851 -8 -1505 6 -335 8
-522 16 -527 22 -15 23 -20 188 -15 492 8 429 8 419 -3 510 -5 44 -11 107 -14
141 l-5 61 247 -5 c136 -2 248 -5 250 -7 1 -1 7 -28 13 -60 25 -136 88 -178
291 -192 142 -10 169 -9 533 26 147 14 192 44 202 135 l5 45 77 3 c103 4 559
-8 876 -23 327 -16 1168 -17 1284 -1 128 17 154 46 115 128 -18 37 -48 50 -89
40 -69 -17 -192 -30 -300 -31 -644 -5 -837 -5 -844 -1 -12 8 -368 24 -669 31
-268 7 -287 8 -307 25 -8 6 -38 13 -67 15 -29 2 -58 4 -64 4 -6 1 -11 24 -13
53 -1 28 -4 55 -6 58 -3 4 -16 94 -29 201 -24 188 -31 287 -41 605 l-5 152 43
5 c23 3 78 6 122 6 44 0 140 4 213 7 l132 7 0 -28 c0 -15 10 -47 21 -71 22
-42 24 -44 133 -79 138 -46 217 -56 321 -44 44 5 120 14 168 19 48 6 100 16
115 24 15 7 52 19 83 25 78 16 91 28 97 90 4 43 7 51 21 45 56 -23 863 -51
933 -31 15 4 29 16 33 26 6 21 -26 94 -47 107 -6 4 -129 6 -272 5 -256 -2
-447 8 -595 32 l-74 11 6 361 c4 198 7 409 7 469 l0 108 223 -7 c122 -5 247
-8 277 -8 96 1 344 25 358 36 17 13 15 78 -4 105 -28 40 -43 42 -215 27 -167
-15 -469 -18 -569 -7 l-55 7 3 79 c2 68 0 82 -17 100 -14 15 -20 34 -19 60 1
32 -4 44 -31 68 -32 29 -36 30 -100 23 -87 -8 -192 -9 -266 -2 -33 3 -125 -1
-205 -9z m510 -144 c-4 -8 -11 -319 -14 -690 -4 -371 -9 -689 -12 -707 -5 -28
-12 -33 -82 -58 -48 -17 -112 -30 -174 -36 -54 -4 -103 -11 -108 -14 -5 -3
-44 -6 -87 -6 -59 0 -99 7 -163 28 l-85 28 -3 55 c-2 30 -7 59 -12 65 -21 25
-40 146 -40 255 0 63 -5 144 -10 180 -5 36 -12 146 -16 245 -4 99 -12 223 -19
275 -14 107 -12 231 4 273 8 21 30 37 94 68 70 33 97 41 168 46 46 3 86 7 89
10 2 2 111 3 241 1 207 -3 236 -5 229 -18z m-1550 -1126 l88 -16 -5 -66 c-3
-36 -12 -76 -20 -89 -13 -20 -13 -26 1 -54 12 -24 17 -77 21 -218 7 -238 32
-572 52 -681 16 -95 27 -355 17 -419 -12 -78 14 -70 -348 -101 -65 -6 -122
-12 -126 -15 -7 -4 -225 12 -265 20 -29 6 -52 51 -59 120 -4 33 -13 83 -21
110 -24 88 -73 470 -101 790 -33 378 -23 464 64 522 97 66 187 94 332 103 185
12 280 10 370 -6z m-1484 -1144 c6 -25 19 -88 29 -140 10 -52 22 -106 27 -120
5 -14 14 -50 19 -80 28 -158 42 -331 34 -413 -10 -95 -6 -613 5 -702 13 -95
12 -232 -1 -277 -5 -21 -11 -38 -12 -39 -1 0 -127 -3 -281 -5 -238 -4 -290 -3
-358 12 -51 11 -82 23 -88 34 -5 9 -14 68 -21 131 -6 63 -14 118 -17 123 -3 5
-6 156 -8 335 -1 179 -5 436 -9 571 -7 261 0 350 35 442 33 89 63 115 150 134
137 29 254 42 370 40 l114 -1 12 -45z"/>
<path d="M9226 3613 c-66 -100 -53 -286 27 -399 34 -49 74 -67 126 -58 119 22
167 104 158 272 -4 96 -31 202 -52 209 -18 6 -33 -58 -40 -165 -6 -117 -20
-160 -59 -186 -68 -44 -121 14 -121 134 0 53 5 74 28 112 33 56 34 82 5 102
-33 24 -45 20 -72 -21z"/>
<path d="M9602 3383 c-35 -7 -49 -46 -27 -79 9 -14 26 -29 36 -31 19 -5 19 -6
-1 -20 -27 -19 -25 -42 5 -76 19 -20 36 -27 63 -27 35 -1 36 -2 18 -15 -11 -8
-39 -15 -63 -15 -49 0 -54 -13 -26 -60 29 -49 84 -62 147 -36 64 27 70 121 11
176 -21 20 -25 33 -25 82 0 92 -39 120 -138 101z"/>
<path d="M7977 2556 c-3 -8 -1 -71 4 -140 9 -107 9 -132 -5 -180 -19 -66 -58
-113 -103 -125 -29 -8 -35 -6 -52 15 -33 42 -36 101 -11 195 32 118 35 152 16
168 -27 22 -65 5 -83 -37 -28 -66 -43 -136 -43 -204 0 -77 8 -103 56 -175 27
-40 44 -55 74 -64 57 -17 124 2 175 50 l40 39 32 -44 33 -44 -31 -34 c-17 -19
-39 -38 -50 -41 -48 -15 4 -115 60 -115 14 0 64 -7 111 -16 72 -13 91 -13 124
-2 49 16 65 55 37 89 -15 19 -27 22 -85 20 -37 -1 -71 1 -76 4 -5 3 0 20 10
38 35 57 23 179 -20 214 -18 15 -75 17 -100 3 -18 -10 -19 -8 -12 22 13 58 7
210 -11 269 -16 52 -55 109 -75 109 -6 0 -12 -7 -15 -14z"/>
<path d="M6526 1237 c-16 -12 -17 -20 -6 -92 21 -139 -6 -272 -61 -300 -67
-35 -91 -3 -92 123 0 59 5 89 23 130 19 44 21 57 11 78 -8 19 -17 25 -37 22
-53 -6 -103 -156 -90 -267 8 -68 33 -124 78 -176 32 -36 39 -39 82 -37 82 3
138 44 175 127 22 49 26 219 6 295 -26 102 -48 127 -89 97z"/>
<path d="M6693 878 c-14 -18 -36 -189 -27 -213 9 -25 54 -75 68 -75 31 1 37
20 43 134 4 97 2 121 -11 141 -18 27 -57 34 -73 13z"/>
<path d="M4340 4245 c-15 -19 -9 -177 14 -340 21 -150 21 -150 61 -174 59 -34
69 -22 61 78 -3 47 -9 158 -13 246 -6 148 -8 161 -29 182 -27 26 -75 31 -94 8z"/>
<path d="M4651 4211 c-16 -16 -36 -42 -44 -58 -22 -41 -40 -150 -32 -192 19
-102 151 -221 244 -221 64 0 104 27 126 84 25 64 15 129 -34 231 -53 108 -132
185 -191 185 -30 0 -47 -7 -69 -29z m139 -160 c67 -134 29 -257 -54 -174 -32
32 -40 61 -33 118 7 46 36 115 49 115 4 0 21 -27 38 -59z"/>
<path d="M4774 3085 c-3 -8 -3 -18 0 -23 3 -5 -12 -28 -33 -50 -78 -82 -108
-239 -63 -328 24 -48 85 -105 143 -135 164 -83 282 103 205 324 -29 81 -75
155 -122 197 -28 24 -44 30 -80 30 -30 0 -46 -5 -50 -15z m130 -193 c33 -105
29 -191 -12 -242 -22 -27 -47 -22 -86 17 -33 33 -35 100 -5 170 24 57 67 115
79 108 5 -3 15 -27 24 -53z"/>
<path d="M5084 3092 c-29 -19 -22 -42 31 -101 61 -69 80 -115 71 -178 -8 -62
-29 -101 -81 -155 -25 -26 -45 -54 -45 -63 0 -21 45 -62 74 -67 51 -10 106 38
156 138 31 60 33 68 27 144 -6 91 -28 143 -85 203 -57 59 -124 95 -148 79z"/>
<path d="M4494 3046 c-15 -24 -16 -45 -11 -184 6 -158 19 -266 38 -312 12 -31
73 -72 94 -64 19 8 19 17 -2 101 -17 73 -21 225 -9 354 8 87 -5 114 -61 125
-26 5 -34 2 -49 -20z"/>
<path d="M141 2653 c-60 -12 -141 -115 -141 -181 0 -39 35 -82 66 -82 21 0 29
10 49 55 33 74 56 95 105 95 47 0 60 -18 60 -84 0 -39 -13 -70 -84 -199 -120
-219 -124 -230 -88 -266 13 -13 19 -10 51 25 20 22 56 68 80 102 24 34 47 62
51 62 4 0 11 -24 14 -53 8 -65 31 -103 87 -149 70 -57 164 -55 214 4 28 33 31
64 10 92 -15 19 -15 19 -37 -1 -36 -33 -63 -43 -112 -43 -43 0 -47 2 -65 38
-22 45 -28 73 -36 173 l-7 76 75 89 c41 49 84 98 96 108 27 25 27 60 -1 86
-36 33 -67 26 -119 -30 -26 -27 -49 -50 -52 -50 -2 0 -10 14 -17 30 -17 41
-71 87 -117 99 -39 11 -42 11 -82 4z"/>
<path d="M1084 2523 c-22 -23 -32 -44 -29 -57 2 -12 4 -24 4 -28 2 -20 44 -48
71 -48 17 0 30 -4 30 -9 0 -31 -48 -154 -77 -198 -46 -70 -74 -87 -129 -78
-58 8 -81 0 -99 -35 -19 -36 -8 -70 32 -98 25 -18 42 -20 149 -17 105 2 128 5
176 28 93 42 88 95 -11 105 -28 2 -51 6 -51 7 0 2 13 28 29 58 16 31 27 58 23
61 -3 3 -1 6 4 6 5 0 10 8 11 18 1 9 9 46 18 82 28 119 2 199 -73 225 l-45 15
-33 -37z"/>
<path d="M653 2444 c-40 -20 -53 -66 -27 -95 13 -15 15 -22 6 -31 -17 -17 -15
-32 6 -55 26 -30 54 -42 116 -49 43 -5 61 -3 81 10 30 20 33 58 5 86 -11 11
-15 22 -10 25 21 13 10 66 -19 96 -25 24 -38 29 -78 29 -26 0 -62 -8 -80 -16z"/>
<path d="M3767 2444 c-48 -8 -96 -18 -106 -24 -19 -10 -35 -50 -20 -50 4 0 6
-6 3 -14 -3 -7 2 -20 10 -28 12 -13 51 -15 232 -14 237 1 244 3 230 59 -19 79
-142 103 -349 71z"/>
<path d="M3690 2243 c-71 -5 -100 -24 -100 -66 0 -47 17 -51 258 -59 194 -7
228 -6 241 7 23 23 -7 77 -54 100 -40 18 -208 27 -345 18z"/>
<path d="M4817 1941 c-70 -15 -136 -293 -93 -394 17 -43 89 -104 139 -119 69
-21 148 22 167 91 25 91 0 214 -67 326 -25 42 -95 106 -113 103 -3 0 -18 -3
-33 -7z m92 -218 c25 -73 26 -111 7 -157 -19 -46 -53 -56 -79 -25 -16 20 -19
35 -14 94 6 74 41 175 57 159 4 -5 18 -37 29 -71z"/>
<path d="M4521 1926 c-8 -10 -10 -49 -7 -128 11 -234 18 -293 37 -334 21 -44
58 -70 85 -60 14 5 15 13 8 49 -5 23 -9 125 -10 227 -2 231 0 212 -24 238 -24
25 -72 29 -89 8z"/>
<path d="M5087 1913 c-16 -15 -4 -52 33 -106 22 -33 42 -73 46 -91 7 -41 -15
-95 -61 -152 -43 -52 -44 -78 -4 -115 51 -48 77 -40 127 36 62 94 75 131 69
193 -6 56 -37 119 -89 178 -44 50 -102 77 -121 57z"/>
<path d="M4624 655 c-10 -15 -19 -54 -21 -93 -6 -86 12 -346 28 -392 15 -44
57 -90 82 -90 17 0 18 5 13 58 -4 31 -8 154 -11 272 -2 118 -7 222 -10 231 -5
14 -45 39 -60 39 -3 0 -12 -11 -21 -25z"/>
<path d="M5127 640 c-5 -21 19 -65 73 -130 51 -62 60 -82 60 -134 0 -55 -10
-79 -77 -180 -67 -100 -70 -142 -12 -171 41 -22 64 -18 77 11 7 14 36 62 65
107 30 45 60 100 67 121 28 85 -8 199 -92 287 -63 67 -91 88 -125 98 -26 8
-32 6 -36 -9z"/>
<path d="M4862 583 c-109 -104 -142 -259 -77 -368 30 -53 125 -120 183 -131
55 -11 114 23 142 81 20 41 22 57 17 133 -8 133 -67 276 -125 306 -66 34 -86
31 -140 -21z m141 -140 c34 -107 30 -188 -12 -242 -17 -22 -23 -23 -52 -15
-51 15 -82 67 -75 126 9 81 70 178 112 178 7 0 19 -21 27 -47z"/>
</g>
</svg>
