<?xml version="1.0" encoding="utf-8" standalone="no"?>
<!DOCTYPE svg PUBLIC "-//W3C//DTD SVG 1.1//EN"
  "http://www.w3.org/Graphics/SVG/1.1/DTD/svg11.dtd">
<svg xmlns:xlink="http://www.w3.org/1999/xlink" width="432pt" height="432pt" viewBox="0 0 432 432" xmlns="http://www.w3.org/2000/svg" version="1.1">
 <metadata>
  <rdf:RDF xmlns:dc="http://purl.org/dc/elements/1.1/" xmlns:cc="http://creativecommons.org/ns#" xmlns:rdf="http://www.w3.org/1999/02/22-rdf-syntax-ns#">
   <cc:Work>
    <dc:type rdf:resource="http://purl.org/dc/dcmitype/StillImage"/>
    <dc:date>2022-08-16T16:23:09.835167</dc:date>
    <dc:format>image/svg+xml</dc:format>
    <dc:creator>
     <cc:Agent>
      <dc:title>Matplotlib v3.5.2, https://matplotlib.org/</dc:title>
     </cc:Agent>
    </dc:creator>
   </cc:Work>
  </rdf:RDF>
 </metadata>
 <defs>
  <style type="text/css">*{stroke-linejoin: round; stroke-linecap: butt}</style>
 </defs>
 <g id="figure_1">
  <g id="patch_1">
   <path d="M 0 432 
L 432 432 
L 432 0 
L 0 0 
L 0 432 
z
" style="fill: none"/>
  </g>
  <g id="axes_1">
   <g id="patch_2">
    <path d="M 54 378 
L 388.8 378 
L 388.8 51.84 
L 54 51.84 
z
" style="fill: #ffffff"/>
   </g>
   <g id="matplotlib.axis_1">
    <g id="xtick_1">
     <g id="line2d_1">
      <defs>
       <path id="me7bf738839" d="M 0 0 
L 0 3.5 
" style="stroke: #000000; stroke-width: 0.8"/>
      </defs>
      <g>
       <use xlink:href="#me7bf738839" x="69.218182" y="378" style="stroke: #000000; stroke-width: 0.8"/>
      </g>
     </g>
     <g id="text_1">
      <!-- 1 -->
      <g transform="translate(65.106039 397.4533)scale(0.18 -0.18)">
       <defs>
        <path id="CMR17-31" d="M 1702 4058 
C 1702 4192 1696 4192 1606 4192 
C 1357 3916 979 3827 621 3827 
C 602 3827 570 3827 563 3808 
C 557 3795 557 3782 557 3648 
C 755 3648 1088 3686 1344 3839 
L 1344 461 
C 1344 236 1331 160 781 160 
L 589 160 
L 589 0 
C 896 0 1216 0 1523 0 
C 1830 0 2150 0 2458 0 
L 2458 160 
L 2266 160 
C 1715 160 1702 230 1702 458 
L 1702 4058 
z
" transform="scale(0.015625)"/>
       </defs>
       <use xlink:href="#CMR17-31" transform="scale(0.996264)"/>
      </g>
     </g>
    </g>
    <g id="xtick_2">
     <g id="line2d_2">
      <g>
       <use xlink:href="#me7bf738839" x="96.887603" y="378" style="stroke: #000000; stroke-width: 0.8"/>
      </g>
     </g>
     <g id="text_2">
      <!-- 2 -->
      <g transform="translate(92.77546 397.4533)scale(0.18 -0.18)">
       <defs>
        <path id="CMR17-32" d="M 2669 989 
L 2554 989 
C 2490 536 2438 459 2413 420 
C 2381 369 1920 369 1830 369 
L 602 369 
C 832 619 1280 1072 1824 1597 
C 2214 1967 2669 2402 2669 3035 
C 2669 3790 2067 4224 1395 4224 
C 691 4224 262 3604 262 3030 
C 262 2780 448 2748 525 2748 
C 589 2748 781 2787 781 3010 
C 781 3207 614 3264 525 3264 
C 486 3264 448 3258 422 3245 
C 544 3790 915 4058 1306 4058 
C 1862 4058 2227 3617 2227 3035 
C 2227 2479 1901 2000 1536 1584 
L 262 146 
L 262 0 
L 2515 0 
L 2669 989 
z
" transform="scale(0.015625)"/>
       </defs>
       <use xlink:href="#CMR17-32" transform="scale(0.996264)"/>
      </g>
     </g>
    </g>
    <g id="xtick_3">
     <g id="line2d_3">
      <g>
       <use xlink:href="#me7bf738839" x="124.557025" y="378" style="stroke: #000000; stroke-width: 0.8"/>
      </g>
     </g>
     <g id="text_3">
      <!-- 3 -->
      <g transform="translate(120.444882 397.4533)scale(0.18 -0.18)">
       <defs>
        <path id="CMR17-33" d="M 1414 2157 
C 1984 2157 2234 1662 2234 1090 
C 2234 320 1824 25 1453 25 
C 1114 25 563 194 390 693 
C 422 680 454 680 486 680 
C 640 680 755 782 755 948 
C 755 1133 614 1216 486 1216 
C 378 1216 211 1165 211 926 
C 211 335 787 -128 1466 -128 
C 2176 -128 2720 430 2720 1085 
C 2720 1707 2208 2157 1600 2227 
C 2086 2328 2554 2756 2554 3329 
C 2554 3820 2048 4179 1472 4179 
C 890 4179 378 3829 378 3329 
C 378 3110 544 3072 627 3072 
C 762 3072 877 3155 877 3321 
C 877 3486 762 3569 627 3569 
C 602 3569 570 3569 544 3557 
C 730 3959 1235 4032 1459 4032 
C 1683 4032 2106 3925 2106 3320 
C 2106 3143 2080 2828 1862 2550 
C 1670 2304 1453 2304 1242 2284 
C 1210 2284 1062 2269 1037 2269 
C 992 2263 966 2257 966 2208 
C 966 2163 973 2157 1101 2157 
L 1414 2157 
z
" transform="scale(0.015625)"/>
       </defs>
       <use xlink:href="#CMR17-33" transform="scale(0.996264)"/>
      </g>
     </g>
    </g>
    <g id="xtick_4">
     <g id="line2d_4">
      <g>
       <use xlink:href="#me7bf738839" x="152.226446" y="378" style="stroke: #000000; stroke-width: 0.8"/>
      </g>
     </g>
     <g id="text_4">
      <!-- 4 -->
      <g transform="translate(148.114303 397.4533)scale(0.18 -0.18)">
       <defs>
        <path id="CMR17-34" d="M 2150 4122 
C 2150 4256 2144 4256 2029 4256 
L 128 1254 
L 128 1088 
L 1779 1088 
L 1779 457 
C 1779 224 1766 160 1318 160 
L 1197 160 
L 1197 0 
C 1402 0 1747 0 1965 0 
C 2182 0 2528 0 2733 0 
L 2733 160 
L 2611 160 
C 2163 160 2150 224 2150 457 
L 2150 1088 
L 2803 1088 
L 2803 1254 
L 2150 1254 
L 2150 4122 
z
M 1798 3703 
L 1798 1254 
L 256 1254 
L 1798 3703 
z
" transform="scale(0.015625)"/>
       </defs>
       <use xlink:href="#CMR17-34" transform="scale(0.996264)"/>
      </g>
     </g>
    </g>
    <g id="xtick_5">
     <g id="line2d_5">
      <g>
       <use xlink:href="#me7bf738839" x="179.895868" y="378" style="stroke: #000000; stroke-width: 0.8"/>
      </g>
     </g>
     <g id="text_5">
      <!-- 5 -->
      <g transform="translate(175.783725 397.4533)scale(0.18 -0.18)">
       <defs>
        <path id="CMR17-35" d="M 730 3692 
C 794 3666 1056 3584 1325 3584 
C 1920 3584 2246 3911 2432 4100 
C 2432 4157 2432 4192 2394 4192 
C 2387 4192 2374 4192 2323 4163 
C 2099 4058 1837 3973 1517 3973 
C 1325 3973 1037 3999 723 4139 
C 653 4171 640 4171 634 4171 
C 602 4171 595 4164 595 4037 
L 595 2203 
C 595 2089 595 2057 659 2057 
C 691 2057 704 2070 736 2114 
C 941 2401 1222 2522 1542 2522 
C 1766 2522 2246 2382 2246 1289 
C 2246 1085 2246 715 2054 421 
C 1894 159 1645 25 1370 25 
C 947 25 518 320 403 814 
C 429 807 480 795 506 795 
C 589 795 749 840 749 1038 
C 749 1210 627 1280 506 1280 
C 358 1280 262 1190 262 1011 
C 262 454 704 -128 1382 -128 
C 2042 -128 2669 440 2669 1264 
C 2669 2030 2170 2624 1549 2624 
C 1222 2624 947 2503 730 2274 
L 730 3692 
z
" transform="scale(0.015625)"/>
       </defs>
       <use xlink:href="#CMR17-35" transform="scale(0.996264)"/>
      </g>
     </g>
    </g>
    <g id="xtick_6">
     <g id="line2d_6">
      <g>
       <use xlink:href="#me7bf738839" x="207.565289" y="378" style="stroke: #000000; stroke-width: 0.8"/>
      </g>
     </g>
     <g id="text_6">
      <!-- 10 -->
      <g transform="translate(199.341003 397.4533)scale(0.18 -0.18)">
       <defs>
        <path id="CMR17-30" d="M 2688 2025 
C 2688 2416 2682 3080 2413 3591 
C 2176 4039 1798 4198 1466 4198 
C 1158 4198 768 4058 525 3597 
C 269 3118 243 2524 243 2025 
C 243 1661 250 1106 448 619 
C 723 -39 1216 -128 1466 -128 
C 1760 -128 2208 -7 2470 600 
C 2662 1042 2688 1559 2688 2025 
z
M 1466 -26 
C 1056 -26 813 325 723 812 
C 653 1188 653 1738 653 2096 
C 653 2588 653 2997 736 3387 
C 858 3929 1216 4096 1466 4096 
C 1728 4096 2067 3923 2189 3400 
C 2272 3036 2278 2607 2278 2096 
C 2278 1680 2278 1169 2202 792 
C 2067 95 1690 -26 1466 -26 
z
" transform="scale(0.015625)"/>
       </defs>
       <use xlink:href="#CMR17-31" transform="scale(0.996264)"/>
       <use xlink:href="#CMR17-30" transform="translate(45.690477 0)scale(0.996264)"/>
      </g>
     </g>
    </g>
    <g id="xtick_7">
     <g id="line2d_7">
      <g>
       <use xlink:href="#me7bf738839" x="235.234711" y="378" style="stroke: #000000; stroke-width: 0.8"/>
      </g>
     </g>
     <g id="text_7">
      <!-- 15 -->
      <g transform="translate(227.010425 397.4533)scale(0.18 -0.18)">
       <use xlink:href="#CMR17-31" transform="scale(0.996264)"/>
       <use xlink:href="#CMR17-35" transform="translate(45.690477 0)scale(0.996264)"/>
      </g>
     </g>
    </g>
    <g id="xtick_8">
     <g id="line2d_8">
      <g>
       <use xlink:href="#me7bf738839" x="262.904132" y="378" style="stroke: #000000; stroke-width: 0.8"/>
      </g>
     </g>
     <g id="text_8">
      <!-- 20 -->
      <g transform="translate(254.679846 397.4533)scale(0.18 -0.18)">
       <use xlink:href="#CMR17-32" transform="scale(0.996264)"/>
       <use xlink:href="#CMR17-30" transform="translate(45.690477 0)scale(0.996264)"/>
      </g>
     </g>
    </g>
    <g id="xtick_9">
     <g id="line2d_9">
      <g>
       <use xlink:href="#me7bf738839" x="290.573554" y="378" style="stroke: #000000; stroke-width: 0.8"/>
      </g>
     </g>
     <g id="text_9">
      <!-- 25 -->
      <g transform="translate(282.349268 397.4533)scale(0.18 -0.18)">
       <use xlink:href="#CMR17-32" transform="scale(0.996264)"/>
       <use xlink:href="#CMR17-35" transform="translate(45.690477 0)scale(0.996264)"/>
      </g>
     </g>
    </g>
    <g id="xtick_10">
     <g id="line2d_10">
      <g>
       <use xlink:href="#me7bf738839" x="318.242975" y="378" style="stroke: #000000; stroke-width: 0.8"/>
      </g>
     </g>
     <g id="text_10">
      <!-- 30 -->
      <g transform="translate(310.018689 397.4533)scale(0.18 -0.18)">
       <use xlink:href="#CMR17-33" transform="scale(0.996264)"/>
       <use xlink:href="#CMR17-30" transform="translate(45.690477 0)scale(0.996264)"/>
      </g>
     </g>
    </g>
    <g id="xtick_11">
     <g id="line2d_11">
      <g>
       <use xlink:href="#me7bf738839" x="345.912397" y="378" style="stroke: #000000; stroke-width: 0.8"/>
      </g>
     </g>
     <g id="text_11">
      <!-- 35 -->
      <g transform="translate(337.688111 397.4533)scale(0.18 -0.18)">
       <use xlink:href="#CMR17-33" transform="scale(0.996264)"/>
       <use xlink:href="#CMR17-35" transform="translate(45.690477 0)scale(0.996264)"/>
      </g>
     </g>
    </g>
    <g id="xtick_12">
     <g id="line2d_12">
      <g>
       <use xlink:href="#me7bf738839" x="373.581818" y="378" style="stroke: #000000; stroke-width: 0.8"/>
      </g>
     </g>
     <g id="text_12">
      <!-- 40 -->
      <g transform="translate(365.357532 397.4533)scale(0.18 -0.18)">
       <use xlink:href="#CMR17-34" transform="scale(0.996264)"/>
       <use xlink:href="#CMR17-30" transform="translate(45.690477 0)scale(0.996264)"/>
      </g>
     </g>
    </g>
    <g id="text_13">
     <!-- Training Points $n$ -->
     <g transform="translate(150.880072 418.778361)scale(0.2 -0.2)">
      <defs>
       <path id="CMR17-54" d="M 3981 4326 
L 288 4326 
L 179 2918 
L 294 2918 
C 378 3976 467 4160 1453 4160 
C 1568 4160 1754 4160 1805 4154 
C 1926 4135 1926 4058 1926 3912 
L 1926 459 
C 1926 230 1907 160 1376 160 
L 1197 160 
L 1197 0 
C 1504 0 1824 0 2138 0 
C 2451 0 2771 0 3078 0 
L 3078 160 
L 2899 160 
C 2368 160 2349 230 2349 459 
L 2349 3912 
C 2349 4052 2349 4129 2464 4154 
C 2515 4160 2701 4160 2816 4160 
C 3795 4160 3891 3976 3974 2918 
L 4090 2918 
L 3981 4326 
z
" transform="scale(0.015625)"/>
       <path id="CMR17-72" d="M 960 1497 
C 960 2112 1222 2688 1702 2688 
C 1747 2688 1792 2682 1837 2662 
C 1837 2662 1696 2617 1696 2452 
C 1696 2298 1818 2234 1914 2234 
C 1990 2234 2131 2279 2131 2458 
C 2131 2663 1926 2790 1709 2790 
C 1222 2790 1011 2317 947 2093 
L 941 2093 
L 941 2790 
L 198 2720 
L 198 2554 
C 576 2554 634 2515 634 2208 
L 634 428 
C 634 184 608 153 198 153 
L 198 -13 
C 352 0 646 0 813 0 
C 998 0 1325 0 1498 -13 
L 1498 153 
C 1037 153 960 153 960 440 
L 960 1497 
z
" transform="scale(0.015625)"/>
       <path id="CMR17-61" d="M 2304 1653 
C 2304 2072 2304 2294 2035 2543 
C 1798 2752 1523 2816 1306 2816 
C 800 2816 435 2407 435 1971 
C 435 1728 627 1728 666 1728 
C 749 1728 896 1778 896 1954 
C 896 2112 774 2181 666 2181 
C 640 2181 608 2174 589 2168 
C 723 2592 1069 2714 1293 2714 
C 1613 2714 1965 2429 1965 1885 
L 1965 1600 
C 1587 1600 1133 1549 774 1357 
C 371 1133 256 813 256 570 
C 256 77 832 -64 1171 -64 
C 1523 -64 1850 139 1990 511 
C 2003 233 2182 -18 2464 -18 
C 2598 -18 2938 70 2938 567 
L 2938 920 
L 2822 920 
L 2822 562 
C 2822 178 2650 128 2566 128 
C 2304 128 2304 458 2304 738 
L 2304 1653 
z
M 1965 870 
C 1965 317 1568 38 1216 38 
C 896 38 646 275 646 570 
C 646 761 730 1100 1101 1305 
C 1408 1478 1760 1504 1965 1504 
L 1965 870 
z
" transform="scale(0.015625)"/>
       <path id="CMR17-69" d="M 992 3909 
C 992 4049 877 4170 730 4170 
C 589 4170 467 4056 467 3909 
C 467 3769 582 3648 730 3648 
C 870 3648 992 3763 992 3909 
z
M 243 2706 
L 243 2541 
C 602 2541 653 2502 653 2197 
L 653 427 
C 653 184 627 153 218 153 
L 218 -13 
C 371 0 646 0 806 0 
C 960 0 1222 0 1370 -13 
L 1370 153 
C 992 153 979 191 979 420 
L 979 2776 
L 243 2706 
z
" transform="scale(0.015625)"/>
       <path id="CMR17-6e" d="M 2656 1933 
C 2656 2259 2592 2790 1837 2790 
C 1331 2790 1069 2400 973 2144 
L 966 2144 
L 966 2790 
L 211 2720 
L 211 2554 
C 589 2554 646 2515 646 2208 
L 646 428 
C 646 184 621 153 211 153 
L 211 -13 
C 365 0 646 0 813 0 
C 979 0 1267 0 1421 -13 
L 1421 153 
C 1011 153 986 178 986 428 
L 986 1658 
C 986 2247 1344 2688 1792 2688 
C 2266 2688 2317 2266 2317 1958 
L 2317 428 
C 2317 184 2291 153 1882 153 
L 1882 -13 
C 2035 0 2317 0 2483 0 
C 2650 0 2938 0 3091 -13 
L 3091 153 
C 2682 153 2656 178 2656 428 
L 2656 1933 
z
" transform="scale(0.015625)"/>
       <path id="CMR17-67" d="M 710 1164 
C 832 1068 1043 960 1299 960 
C 1805 960 2240 1357 2240 1888 
C 2240 2054 2189 2310 1997 2509 
C 2176 2692 2438 2752 2586 2752 
C 2611 2752 2650 2752 2682 2734 
C 2656 2728 2598 2703 2598 2605 
C 2598 2527 2656 2471 2739 2471 
C 2835 2471 2886 2533 2886 2614 
C 2886 2731 2790 2854 2586 2854 
C 2330 2854 2106 2738 1926 2580 
C 1734 2753 1504 2816 1299 2816 
C 794 2816 358 2419 358 1888 
C 358 1522 570 1292 634 1228 
C 442 1004 442 743 442 711 
C 442 545 506 302 723 168 
C 390 85 128 -169 128 -486 
C 128 -943 736 -1280 1466 -1280 
C 2170 -1280 2803 -956 2803 -479 
C 2803 384 1856 384 1363 384 
C 1216 384 954 384 922 391 
C 723 423 589 602 589 826 
C 589 883 589 1024 710 1164 
z
M 1299 1068 
C 736 1068 736 1760 736 1889 
C 736 2016 736 2708 1299 2708 
C 1862 2708 1862 2016 1862 1889 
C 1862 1760 1862 1068 1299 1068 
z
M 1466 -1171 
C 826 -1171 384 -835 384 -486 
C 384 -289 493 -105 634 -4 
C 794 104 858 104 1293 104 
C 1818 104 2547 104 2547 -486 
C 2547 -835 2106 -1171 1466 -1171 
z
" transform="scale(0.015625)"/>
       <path id="CMR17-50" d="M 1267 2042 
L 2291 2042 
C 3117 2042 3718 2578 3718 3184 
C 3718 3791 3130 4352 2291 4352 
L 333 4352 
L 333 4186 
C 774 4186 845 4186 845 3899 
L 845 446 
C 845 160 774 160 333 160 
L 333 0 
C 518 0 858 0 1056 0 
C 1254 0 1594 0 1779 0 
L 1779 160 
C 1338 160 1267 160 1267 446 
L 1267 2042 
z
M 1254 2176 
L 1254 3938 
C 1254 4155 1267 4186 1523 4186 
L 2170 4186 
C 2995 4186 3232 3714 3232 3184 
C 3232 2604 2950 2176 2170 2176 
L 1254 2176 
z
" transform="scale(0.015625)"/>
       <path id="CMR17-6f" d="M 2758 1356 
C 2758 2176 2163 2816 1466 2816 
C 768 2816 173 2176 173 1356 
C 173 551 768 -64 1466 -64 
C 2163 -64 2758 551 2758 1356 
z
M 1466 51 
C 1165 51 909 230 762 480 
C 602 767 582 1126 582 1408 
C 582 1677 595 2010 762 2298 
C 890 2509 1139 2714 1466 2714 
C 1754 2714 1997 2554 2150 2330 
C 2349 2029 2349 1607 2349 1408 
C 2349 1158 2336 775 2163 467 
C 1984 173 1709 51 1466 51 
z
" transform="scale(0.015625)"/>
       <path id="CMR17-74" d="M 966 2560 
L 1862 2560 
L 1862 2725 
L 966 2725 
L 966 3904 
L 851 3904 
C 838 3245 614 2668 70 2668 
L 70 2560 
L 627 2560 
L 627 771 
C 627 650 627 -64 1370 -64 
C 1747 -64 1965 306 1965 777 
L 1965 1140 
L 1850 1140 
L 1850 783 
C 1850 344 1677 51 1408 51 
C 1222 51 966 178 966 758 
L 966 2560 
z
" transform="scale(0.015625)"/>
       <path id="CMR17-73" d="M 1978 2697 
C 1978 2813 1971 2819 1933 2819 
C 1907 2819 1901 2813 1824 2717 
C 1805 2691 1747 2626 1728 2601 
C 1523 2819 1235 2819 1126 2819 
C 416 2819 160 2447 160 2076 
C 160 1498 813 1365 998 1325 
C 1402 1243 1542 1217 1677 1101 
C 1760 1025 1901 884 1901 654 
C 1901 384 1747 38 1158 38 
C 602 38 403 460 288 1021 
C 269 1110 269 1117 218 1117 
C 166 1117 160 1110 160 983 
L 160 63 
C 160 -51 166 -58 205 -58 
C 237 -58 243 -51 275 0 
C 314 57 410 211 448 276 
C 576 103 800 -64 1158 -64 
C 1792 -64 2131 283 2131 784 
C 2131 1112 1958 1285 1875 1362 
C 1683 1561 1459 1606 1190 1657 
C 838 1735 390 1825 390 2217 
C 390 2383 480 2737 1126 2737 
C 1811 2737 1850 2094 1862 1888 
C 1869 1856 1901 1849 1920 1849 
C 1978 1849 1978 1869 1978 1978 
L 1978 2697 
z
" transform="scale(0.015625)"/>
       <path id="CMMI12-6e" d="M 1318 1871 
C 1331 1910 1491 2229 1728 2433 
C 1894 2586 2112 2689 2362 2689 
C 2618 2689 2707 2497 2707 2242 
C 2707 1878 2445 1150 2317 805 
C 2259 651 2227 568 2227 453 
C 2227 166 2426 -64 2733 -64 
C 3328 -64 3552 875 3552 913 
C 3552 945 3526 971 3488 971 
C 3430 971 3424 952 3392 843 
C 3245 319 3002 64 2752 64 
C 2688 64 2586 64 2586 269 
C 2586 429 2656 621 2694 710 
C 2822 1063 3091 1780 3091 2145 
C 3091 2528 2867 2816 2381 2816 
C 1811 2816 1510 2415 1395 2255 
C 1376 2618 1114 2816 832 2816 
C 627 2816 486 2695 378 2478 
C 262 2248 173 1865 173 1839 
C 173 1814 198 1782 243 1782 
C 294 1782 301 1788 339 1935 
C 442 2325 557 2689 813 2689 
C 960 2689 1011 2586 1011 2395 
C 1011 2254 947 2005 902 1807 
L 723 1118 
C 698 996 627 709 595 594 
C 550 428 480 128 480 96 
C 480 6 550 -64 646 -64 
C 723 -64 813 -26 864 70 
C 877 102 934 326 966 453 
L 1107 1028 
L 1318 1871 
z
" transform="scale(0.015625)"/>
      </defs>
      <use xlink:href="#CMR17-54" transform="scale(0.996264)"/>
      <use xlink:href="#CMR17-72" transform="translate(58.702625 0)scale(0.996264)"/>
      <use xlink:href="#CMR17-61" transform="translate(93.983393 0)scale(0.996264)"/>
      <use xlink:href="#CMR17-69" transform="translate(139.67387 0)scale(0.996264)"/>
      <use xlink:href="#CMR17-6e" transform="translate(164.544929 0)scale(0.996264)"/>
      <use xlink:href="#CMR17-69" transform="translate(215.440298 0)scale(0.996264)"/>
      <use xlink:href="#CMR17-6e" transform="translate(240.311357 0)scale(0.996264)"/>
      <use xlink:href="#CMR17-67" transform="translate(291.206727 0)scale(0.996264)"/>
      <use xlink:href="#CMR17-50" transform="translate(366.97317 0)scale(0.996264)"/>
      <use xlink:href="#CMR17-6f" transform="translate(426.957017 0)scale(0.996264)"/>
      <use xlink:href="#CMR17-69" transform="translate(472.647494 0)scale(0.996264)"/>
      <use xlink:href="#CMR17-6e" transform="translate(497.518552 0)scale(0.996264)"/>
      <use xlink:href="#CMR17-74" transform="translate(545.811468 0)scale(0.996264)"/>
      <use xlink:href="#CMR17-73" transform="translate(581.092236 0)scale(0.996264)"/>
      <use xlink:href="#CMMI12-6e" transform="translate(646.96954 0)scale(0.996264)"/>
     </g>
    </g>
   </g>
   <g id="matplotlib.axis_2">
    <g id="ytick_1">
     <g id="line2d_13">
      <defs>
       <path id="mf527f38165" d="M 0 0 
L -3.5 0 
" style="stroke: #000000; stroke-width: 0.8"/>
      </defs>
      <g>
       <use xlink:href="#mf527f38165" x="54" y="336.821875" style="stroke: #000000; stroke-width: 0.8"/>
      </g>
     </g>
     <g id="text_14">
      <!-- $\mathdefault{0.2}$ -->
      <g transform="translate(25.673936 343.048525)scale(0.18 -0.18)">
       <defs>
        <path id="CMMI12-3a" d="M 1178 307 
C 1178 492 1024 619 870 619 
C 685 619 557 466 557 313 
C 557 128 710 0 864 0 
C 1050 0 1178 153 1178 307 
z
" transform="scale(0.015625)"/>
       </defs>
       <use xlink:href="#CMR17-30" transform="scale(0.996264)"/>
       <use xlink:href="#CMMI12-3a" transform="translate(45.690477 0)scale(0.996264)"/>
       <use xlink:href="#CMR17-32" transform="translate(72.787654 0)scale(0.996264)"/>
      </g>
     </g>
    </g>
    <g id="ytick_2">
     <g id="line2d_14">
      <g>
       <use xlink:href="#mf527f38165" x="54" y="273.492569" style="stroke: #000000; stroke-width: 0.8"/>
      </g>
     </g>
     <g id="text_15">
      <!-- $\mathdefault{0.4}$ -->
      <g transform="translate(25.673936 279.719219)scale(0.18 -0.18)">
       <use xlink:href="#CMR17-30" transform="scale(0.996264)"/>
       <use xlink:href="#CMMI12-3a" transform="translate(45.690477 0)scale(0.996264)"/>
       <use xlink:href="#CMR17-34" transform="translate(72.787654 0)scale(0.996264)"/>
      </g>
     </g>
    </g>
    <g id="ytick_3">
     <g id="line2d_15">
      <g>
       <use xlink:href="#mf527f38165" x="54" y="210.163264" style="stroke: #000000; stroke-width: 0.8"/>
      </g>
     </g>
     <g id="text_16">
      <!-- $\mathdefault{0.6}$ -->
      <g transform="translate(25.673936 216.389914)scale(0.18 -0.18)">
       <defs>
        <path id="CMR17-36" d="M 678 2176 
C 678 3690 1395 4032 1811 4032 
C 1946 4032 2272 4009 2400 3776 
C 2298 3776 2106 3776 2106 3553 
C 2106 3381 2246 3323 2336 3323 
C 2394 3323 2566 3348 2566 3560 
C 2566 3954 2246 4179 1805 4179 
C 1043 4179 243 3390 243 1984 
C 243 253 966 -128 1478 -128 
C 2099 -128 2688 427 2688 1283 
C 2688 2081 2170 2662 1517 2662 
C 1126 2662 838 2407 678 1960 
L 678 2176 
z
M 1478 25 
C 691 25 691 1200 691 1436 
C 691 1896 909 2560 1504 2560 
C 1613 2560 1926 2560 2138 2120 
C 2253 1870 2253 1609 2253 1289 
C 2253 944 2253 690 2118 434 
C 1978 171 1773 25 1478 25 
z
" transform="scale(0.015625)"/>
       </defs>
       <use xlink:href="#CMR17-30" transform="scale(0.996264)"/>
       <use xlink:href="#CMMI12-3a" transform="translate(45.690477 0)scale(0.996264)"/>
       <use xlink:href="#CMR17-36" transform="translate(72.787654 0)scale(0.996264)"/>
      </g>
     </g>
    </g>
    <g id="ytick_4">
     <g id="line2d_16">
      <g>
       <use xlink:href="#mf527f38165" x="54" y="146.833958" style="stroke: #000000; stroke-width: 0.8"/>
      </g>
     </g>
     <g id="text_17">
      <!-- $\mathdefault{0.8}$ -->
      <g transform="translate(25.673936 153.060608)scale(0.18 -0.18)">
       <defs>
        <path id="CMR17-38" d="M 1741 2264 
C 2144 2467 2554 2773 2554 3263 
C 2554 3841 1990 4179 1472 4179 
C 890 4179 378 3759 378 3180 
C 378 3021 416 2747 666 2505 
C 730 2442 998 2251 1171 2130 
C 883 1983 211 1634 211 934 
C 211 279 838 -128 1459 -128 
C 2144 -128 2720 362 2720 1010 
C 2720 1590 2330 1857 2074 2029 
L 1741 2264 
z
M 902 2822 
C 851 2854 595 3051 595 3351 
C 595 3739 998 4032 1459 4032 
C 1965 4032 2336 3676 2336 3262 
C 2336 2669 1670 2331 1638 2331 
C 1632 2331 1626 2331 1574 2370 
L 902 2822 
z
M 2080 1519 
C 2176 1449 2483 1240 2483 851 
C 2483 381 2010 25 1472 25 
C 890 25 448 438 448 940 
C 448 1443 838 1862 1280 2060 
L 2080 1519 
z
" transform="scale(0.015625)"/>
       </defs>
       <use xlink:href="#CMR17-30" transform="scale(0.996264)"/>
       <use xlink:href="#CMMI12-3a" transform="translate(45.690477 0)scale(0.996264)"/>
       <use xlink:href="#CMR17-38" transform="translate(72.787654 0)scale(0.996264)"/>
      </g>
     </g>
    </g>
    <g id="ytick_5">
     <g id="line2d_17">
      <g>
       <use xlink:href="#mf527f38165" x="54" y="83.504653" style="stroke: #000000; stroke-width: 0.8"/>
      </g>
     </g>
     <g id="text_18">
      <!-- $\mathdefault{1.0}$ -->
      <g transform="translate(25.673936 89.731303)scale(0.18 -0.18)">
       <use xlink:href="#CMR17-31" transform="scale(0.996264)"/>
       <use xlink:href="#CMMI12-3a" transform="translate(45.690477 0)scale(0.996264)"/>
       <use xlink:href="#CMR17-30" transform="translate(72.787654 0)scale(0.996264)"/>
      </g>
     </g>
    </g>
    <g id="text_19">
     <!-- Accuracy -->
     <g transform="translate(17.798303 251.98887)rotate(-90)scale(0.2 -0.2)">
      <defs>
       <path id="CMR17-41" d="M 2323 4378 
C 2291 4461 2278 4480 2214 4480 
C 2150 4480 2138 4461 2106 4378 
L 749 566 
C 627 223 371 153 147 153 
L 147 -13 
C 262 0 518 0 640 0 
C 800 0 1056 0 1210 -13 
L 1210 153 
C 909 153 864 361 864 439 
C 864 497 877 530 890 569 
L 1229 1536 
L 2906 1536 
L 3290 442 
C 3322 365 3322 352 3322 327 
C 3322 153 3046 153 2925 153 
L 2925 0 
C 3110 0 3443 0 3642 0 
C 3808 0 4128 0 4282 -13 
L 4282 153 
C 3942 153 3827 153 3744 387 
L 2323 4378 
z
M 2067 3893 
L 2848 1702 
L 1286 1702 
L 2067 3893 
z
" transform="scale(0.015625)"/>
       <path id="CMR17-63" d="M 2234 2240 
C 2112 2240 1933 2240 1933 2017 
C 1933 1838 2080 1787 2163 1787 
C 2208 1787 2394 1807 2394 2024 
C 2394 2467 1958 2803 1466 2803 
C 787 2803 211 2178 211 1363 
C 211 516 813 -64 1466 -64 
C 2259 -64 2458 677 2458 748 
C 2458 774 2451 793 2406 793 
C 2362 793 2355 787 2330 703 
C 2163 180 1798 51 1523 51 
C 1114 51 621 427 621 1369 
C 621 2338 1094 2688 1472 2688 
C 1722 2688 2093 2573 2234 2240 
z
" transform="scale(0.015625)"/>
       <path id="CMR17-75" d="M 1882 2693 
L 1882 2528 
C 2259 2528 2317 2489 2317 2186 
L 2317 1032 
C 2317 500 2029 38 1555 38 
C 1030 38 986 348 986 678 
L 986 2763 
L 211 2693 
L 211 2528 
C 467 2528 640 2528 646 2274 
L 646 1058 
C 646 633 646 361 813 183 
C 896 101 1056 -64 1517 -64 
C 2061 -64 2272 377 2323 506 
L 2330 506 
L 2330 -63 
L 3091 -63 
L 3091 128 
C 2714 128 2656 166 2656 473 
L 2656 2763 
L 1882 2693 
z
" transform="scale(0.015625)"/>
       <path id="CMR17-79" d="M 2496 2197 
C 2656 2586 2944 2586 3034 2586 
L 3034 2752 
C 2912 2752 2752 2752 2630 2752 
C 2496 2752 2285 2752 2157 2758 
L 2157 2592 
C 2400 2573 2406 2394 2406 2343 
C 2406 2280 2394 2248 2362 2171 
L 1664 449 
L 902 2306 
C 870 2382 870 2426 870 2433 
C 870 2573 1018 2586 1171 2586 
L 1171 2758 
C 1018 2752 742 2752 582 2752 
C 410 2752 205 2752 64 2758 
L 64 2586 
C 410 2586 448 2554 531 2350 
L 1485 15 
C 1197 -738 1030 -1178 627 -1178 
C 557 -1178 397 -1159 282 -1044 
C 429 -1031 493 -942 493 -833 
C 493 -725 416 -629 288 -629 
C 147 -629 77 -725 77 -840 
C 77 -1095 339 -1280 627 -1280 
C 998 -1280 1229 -922 1357 -604 
L 2496 2197 
z
" transform="scale(0.015625)"/>
      </defs>
      <use xlink:href="#CMR17-41" transform="scale(0.996264)"/>
      <use xlink:href="#CMR17-63" transform="translate(69.07243 0)scale(0.996264)"/>
      <use xlink:href="#CMR17-63" transform="translate(109.55809 0)scale(0.996264)"/>
      <use xlink:href="#CMR17-75" transform="translate(150.043751 0)scale(0.996264)"/>
      <use xlink:href="#CMR17-72" transform="translate(200.939121 0)scale(0.996264)"/>
      <use xlink:href="#CMR17-61" transform="translate(236.219888 0)scale(0.996264)"/>
      <use xlink:href="#CMR17-63" transform="translate(281.910365 0)scale(0.996264)"/>
      <use xlink:href="#CMR17-79" transform="translate(322.396026 0)scale(0.996264)"/>
     </g>
    </g>
   </g>
   <g id="line2d_18">
    <path d="M 69.218182 263.192058 
L 96.887603 155.421412 
L 124.557025 154.550634 
L 152.226446 105.809234 
L 179.895868 110.232786 
L 207.565289 95.553053 
L 235.234711 94.356129 
L 262.904132 93.564513 
L 290.573554 92.335924 
L 318.242975 95.416895 
L 345.912397 92.867891 
L 373.581818 94.223138 
" clip-path="url(#p5c4da4d593)" style="fill: none; stroke: #ff0000; stroke-opacity: 0.3; stroke-width: 1.5; stroke-linecap: square"/>
   </g>
   <g id="LineCollection_1">
    <path d="M 69.218182 357.785164 
L 69.218182 168.598951 
" clip-path="url(#p5c4da4d593)" style="fill: none; stroke: #ff0000; stroke-width: 1.5"/>
    <path d="M 96.887603 237.741977 
L 96.887603 73.100847 
" clip-path="url(#p5c4da4d593)" style="fill: none; stroke: #ff0000; stroke-width: 1.5"/>
    <path d="M 124.557025 239.352452 
L 124.557025 69.748816 
" clip-path="url(#p5c4da4d593)" style="fill: none; stroke: #ff0000; stroke-width: 1.5"/>
    <path d="M 152.226446 120.164475 
L 152.226446 91.453993 
" clip-path="url(#p5c4da4d593)" style="fill: none; stroke: #ff0000; stroke-width: 1.5"/>
    <path d="M 179.895868 142.929807 
L 179.895868 77.535766 
" clip-path="url(#p5c4da4d593)" style="fill: none; stroke: #ff0000; stroke-width: 1.5"/>
    <path d="M 207.565289 101.301147 
L 207.565289 89.804959 
" clip-path="url(#p5c4da4d593)" style="fill: none; stroke: #ff0000; stroke-width: 1.5"/>
    <path d="M 235.234711 97.352752 
L 235.234711 91.359507 
" clip-path="url(#p5c4da4d593)" style="fill: none; stroke: #ff0000; stroke-width: 1.5"/>
    <path d="M 262.904132 97.291055 
L 262.904132 89.837971 
" clip-path="url(#p5c4da4d593)" style="fill: none; stroke: #ff0000; stroke-width: 1.5"/>
    <path d="M 290.573554 94.115661 
L 290.573554 90.556188 
" clip-path="url(#p5c4da4d593)" style="fill: none; stroke: #ff0000; stroke-width: 1.5"/>
    <path d="M 318.242975 105.739473 
L 318.242975 85.094317 
" clip-path="url(#p5c4da4d593)" style="fill: none; stroke: #ff0000; stroke-width: 1.5"/>
    <path d="M 345.912397 95.119604 
L 345.912397 90.616178 
" clip-path="url(#p5c4da4d593)" style="fill: none; stroke: #ff0000; stroke-width: 1.5"/>
    <path d="M 373.581818 96.670684 
L 373.581818 91.775591 
" clip-path="url(#p5c4da4d593)" style="fill: none; stroke: #ff0000; stroke-width: 1.5"/>
   </g>
   <g id="line2d_19">
    <defs>
     <path id="m187ef8f890" d="M 3 0 
L -3 -0 
" style="stroke: #ff0000"/>
    </defs>
    <g clip-path="url(#p5c4da4d593)">
     <use xlink:href="#m187ef8f890" x="69.218182" y="357.785164" style="fill: #ff0000; stroke: #ff0000"/>
     <use xlink:href="#m187ef8f890" x="96.887603" y="237.741977" style="fill: #ff0000; stroke: #ff0000"/>
     <use xlink:href="#m187ef8f890" x="124.557025" y="239.352452" style="fill: #ff0000; stroke: #ff0000"/>
     <use xlink:href="#m187ef8f890" x="152.226446" y="120.164475" style="fill: #ff0000; stroke: #ff0000"/>
     <use xlink:href="#m187ef8f890" x="179.895868" y="142.929807" style="fill: #ff0000; stroke: #ff0000"/>
     <use xlink:href="#m187ef8f890" x="207.565289" y="101.301147" style="fill: #ff0000; stroke: #ff0000"/>
     <use xlink:href="#m187ef8f890" x="235.234711" y="97.352752" style="fill: #ff0000; stroke: #ff0000"/>
     <use xlink:href="#m187ef8f890" x="262.904132" y="97.291055" style="fill: #ff0000; stroke: #ff0000"/>
     <use xlink:href="#m187ef8f890" x="290.573554" y="94.115661" style="fill: #ff0000; stroke: #ff0000"/>
     <use xlink:href="#m187ef8f890" x="318.242975" y="105.739473" style="fill: #ff0000; stroke: #ff0000"/>
     <use xlink:href="#m187ef8f890" x="345.912397" y="95.119604" style="fill: #ff0000; stroke: #ff0000"/>
     <use xlink:href="#m187ef8f890" x="373.581818" y="96.670684" style="fill: #ff0000; stroke: #ff0000"/>
    </g>
   </g>
   <g id="line2d_20">
    <g clip-path="url(#p5c4da4d593)">
     <use xlink:href="#m187ef8f890" x="69.218182" y="168.598951" style="fill: #ff0000; stroke: #ff0000"/>
     <use xlink:href="#m187ef8f890" x="96.887603" y="73.100847" style="fill: #ff0000; stroke: #ff0000"/>
     <use xlink:href="#m187ef8f890" x="124.557025" y="69.748816" style="fill: #ff0000; stroke: #ff0000"/>
     <use xlink:href="#m187ef8f890" x="152.226446" y="91.453993" style="fill: #ff0000; stroke: #ff0000"/>
     <use xlink:href="#m187ef8f890" x="179.895868" y="77.535766" style="fill: #ff0000; stroke: #ff0000"/>
     <use xlink:href="#m187ef8f890" x="207.565289" y="89.804959" style="fill: #ff0000; stroke: #ff0000"/>
     <use xlink:href="#m187ef8f890" x="235.234711" y="91.359507" style="fill: #ff0000; stroke: #ff0000"/>
     <use xlink:href="#m187ef8f890" x="262.904132" y="89.837971" style="fill: #ff0000; stroke: #ff0000"/>
     <use xlink:href="#m187ef8f890" x="290.573554" y="90.556188" style="fill: #ff0000; stroke: #ff0000"/>
     <use xlink:href="#m187ef8f890" x="318.242975" y="85.094317" style="fill: #ff0000; stroke: #ff0000"/>
     <use xlink:href="#m187ef8f890" x="345.912397" y="90.616178" style="fill: #ff0000; stroke: #ff0000"/>
     <use xlink:href="#m187ef8f890" x="373.581818" y="91.775591" style="fill: #ff0000; stroke: #ff0000"/>
    </g>
   </g>
   <g id="line2d_21">
    <path d="M 69.218182 272.42547 
L 96.887603 198.659495 
L 124.557025 142.128591 
L 152.226446 120.374974 
L 179.895868 98.634024 
L 207.565289 97.573258 
L 235.234711 92.263096 
L 262.904132 96.838638 
L 290.573554 94.495454 
L 318.242975 93.393524 
L 345.912397 92.041443 
L 373.581818 92.092107 
" clip-path="url(#p5c4da4d593)" style="fill: none; stroke: #0000ff; stroke-opacity: 0.3; stroke-width: 1.5; stroke-linecap: square"/>
   </g>
   <g id="LineCollection_2">
    <path d="M 69.218182 362.916491 
L 69.218182 181.93445 
" clip-path="url(#p5c4da4d593)" style="fill: none; stroke: #0000ff; stroke-width: 1.5"/>
    <path d="M 96.887603 289.122349 
L 96.887603 108.196641 
" clip-path="url(#p5c4da4d593)" style="fill: none; stroke: #0000ff; stroke-width: 1.5"/>
    <path d="M 124.557025 215.006103 
L 124.557025 69.251079 
" clip-path="url(#p5c4da4d593)" style="fill: none; stroke: #0000ff; stroke-width: 1.5"/>
    <path d="M 152.226446 179.503635 
L 152.226446 61.246314 
" clip-path="url(#p5c4da4d593)" style="fill: none; stroke: #0000ff; stroke-width: 1.5"/>
    <path d="M 179.895868 107.301835 
L 179.895868 89.966213 
" clip-path="url(#p5c4da4d593)" style="fill: none; stroke: #0000ff; stroke-width: 1.5"/>
    <path d="M 207.565289 101.570287 
L 207.565289 93.576229 
" clip-path="url(#p5c4da4d593)" style="fill: none; stroke: #0000ff; stroke-width: 1.5"/>
    <path d="M 235.234711 94.406734 
L 235.234711 90.119457 
" clip-path="url(#p5c4da4d593)" style="fill: none; stroke: #0000ff; stroke-width: 1.5"/>
    <path d="M 262.904132 107.761736 
L 262.904132 85.91554 
" clip-path="url(#p5c4da4d593)" style="fill: none; stroke: #0000ff; stroke-width: 1.5"/>
    <path d="M 290.573554 97.703521 
L 290.573554 91.287387 
" clip-path="url(#p5c4da4d593)" style="fill: none; stroke: #0000ff; stroke-width: 1.5"/>
    <path d="M 318.242975 95.310742 
L 318.242975 91.476306 
" clip-path="url(#p5c4da4d593)" style="fill: none; stroke: #0000ff; stroke-width: 1.5"/>
    <path d="M 345.912397 94.146759 
L 345.912397 89.936127 
" clip-path="url(#p5c4da4d593)" style="fill: none; stroke: #0000ff; stroke-width: 1.5"/>
    <path d="M 373.581818 94.380688 
L 373.581818 89.803525 
" clip-path="url(#p5c4da4d593)" style="fill: none; stroke: #0000ff; stroke-width: 1.5"/>
   </g>
   <g id="line2d_22">
    <defs>
     <path id="m9980eb9796" d="M 3 0 
L -3 -0 
" style="stroke: #0000ff"/>
    </defs>
    <g clip-path="url(#p5c4da4d593)">
     <use xlink:href="#m9980eb9796" x="69.218182" y="362.916491" style="fill: #0000ff; stroke: #0000ff"/>
     <use xlink:href="#m9980eb9796" x="96.887603" y="289.122349" style="fill: #0000ff; stroke: #0000ff"/>
     <use xlink:href="#m9980eb9796" x="124.557025" y="215.006103" style="fill: #0000ff; stroke: #0000ff"/>
     <use xlink:href="#m9980eb9796" x="152.226446" y="179.503635" style="fill: #0000ff; stroke: #0000ff"/>
     <use xlink:href="#m9980eb9796" x="179.895868" y="107.301835" style="fill: #0000ff; stroke: #0000ff"/>
     <use xlink:href="#m9980eb9796" x="207.565289" y="101.570287" style="fill: #0000ff; stroke: #0000ff"/>
     <use xlink:href="#m9980eb9796" x="235.234711" y="94.406734" style="fill: #0000ff; stroke: #0000ff"/>
     <use xlink:href="#m9980eb9796" x="262.904132" y="107.761736" style="fill: #0000ff; stroke: #0000ff"/>
     <use xlink:href="#m9980eb9796" x="290.573554" y="97.703521" style="fill: #0000ff; stroke: #0000ff"/>
     <use xlink:href="#m9980eb9796" x="318.242975" y="95.310742" style="fill: #0000ff; stroke: #0000ff"/>
     <use xlink:href="#m9980eb9796" x="345.912397" y="94.146759" style="fill: #0000ff; stroke: #0000ff"/>
     <use xlink:href="#m9980eb9796" x="373.581818" y="94.380688" style="fill: #0000ff; stroke: #0000ff"/>
    </g>
   </g>
   <g id="line2d_23">
    <g clip-path="url(#p5c4da4d593)">
     <use xlink:href="#m9980eb9796" x="69.218182" y="181.93445" style="fill: #0000ff; stroke: #0000ff"/>
     <use xlink:href="#m9980eb9796" x="96.887603" y="108.196641" style="fill: #0000ff; stroke: #0000ff"/>
     <use xlink:href="#m9980eb9796" x="124.557025" y="69.251079" style="fill: #0000ff; stroke: #0000ff"/>
     <use xlink:href="#m9980eb9796" x="152.226446" y="61.246314" style="fill: #0000ff; stroke: #0000ff"/>
     <use xlink:href="#m9980eb9796" x="179.895868" y="89.966213" style="fill: #0000ff; stroke: #0000ff"/>
     <use xlink:href="#m9980eb9796" x="207.565289" y="93.576229" style="fill: #0000ff; stroke: #0000ff"/>
     <use xlink:href="#m9980eb9796" x="235.234711" y="90.119457" style="fill: #0000ff; stroke: #0000ff"/>
     <use xlink:href="#m9980eb9796" x="262.904132" y="85.91554" style="fill: #0000ff; stroke: #0000ff"/>
     <use xlink:href="#m9980eb9796" x="290.573554" y="91.287387" style="fill: #0000ff; stroke: #0000ff"/>
     <use xlink:href="#m9980eb9796" x="318.242975" y="91.476306" style="fill: #0000ff; stroke: #0000ff"/>
     <use xlink:href="#m9980eb9796" x="345.912397" y="89.936127" style="fill: #0000ff; stroke: #0000ff"/>
     <use xlink:href="#m9980eb9796" x="373.581818" y="89.803525" style="fill: #0000ff; stroke: #0000ff"/>
    </g>
   </g>
   <g id="line2d_24">
    <path d="M 54 83.504653 
L 388.8 83.504653 
" clip-path="url(#p5c4da4d593)" style="fill: none; stroke-dasharray: 5.55,2.4; stroke-dashoffset: 0; stroke: #000000; stroke-opacity: 0.8; stroke-width: 1.5"/>
   </g>
   <g id="line2d_25">
    <defs>
     <path id="m085c7d88ab" d="M 0 3 
C 0.795609 3 1.55874 2.683901 2.12132 2.12132 
C 2.683901 1.55874 3 0.795609 3 0 
C 3 -0.795609 2.683901 -1.55874 2.12132 -2.12132 
C 1.55874 -2.683901 0.795609 -3 0 -3 
C -0.795609 -3 -1.55874 -2.683901 -2.12132 -2.12132 
C -2.683901 -1.55874 -3 -0.795609 -3 0 
C -3 0.795609 -2.683901 1.55874 -2.12132 2.12132 
C -1.55874 2.683901 -0.795609 3 0 3 
z
" style="stroke: #ff0000"/>
    </defs>
    <g clip-path="url(#p5c4da4d593)">
     <use xlink:href="#m085c7d88ab" x="69.218182" y="263.192058" style="fill: #ff0000; stroke: #ff0000"/>
     <use xlink:href="#m085c7d88ab" x="96.887603" y="155.421412" style="fill: #ff0000; stroke: #ff0000"/>
     <use xlink:href="#m085c7d88ab" x="124.557025" y="154.550634" style="fill: #ff0000; stroke: #ff0000"/>
     <use xlink:href="#m085c7d88ab" x="152.226446" y="105.809234" style="fill: #ff0000; stroke: #ff0000"/>
     <use xlink:href="#m085c7d88ab" x="179.895868" y="110.232786" style="fill: #ff0000; stroke: #ff0000"/>
     <use xlink:href="#m085c7d88ab" x="207.565289" y="95.553053" style="fill: #ff0000; stroke: #ff0000"/>
     <use xlink:href="#m085c7d88ab" x="235.234711" y="94.356129" style="fill: #ff0000; stroke: #ff0000"/>
     <use xlink:href="#m085c7d88ab" x="262.904132" y="93.564513" style="fill: #ff0000; stroke: #ff0000"/>
     <use xlink:href="#m085c7d88ab" x="290.573554" y="92.335924" style="fill: #ff0000; stroke: #ff0000"/>
     <use xlink:href="#m085c7d88ab" x="318.242975" y="95.416895" style="fill: #ff0000; stroke: #ff0000"/>
     <use xlink:href="#m085c7d88ab" x="345.912397" y="92.867891" style="fill: #ff0000; stroke: #ff0000"/>
     <use xlink:href="#m085c7d88ab" x="373.581818" y="94.223138" style="fill: #ff0000; stroke: #ff0000"/>
    </g>
   </g>
   <g id="line2d_26">
    <defs>
     <path id="ma038dddc32" d="M 0 3 
C 0.795609 3 1.55874 2.683901 2.12132 2.12132 
C 2.683901 1.55874 3 0.795609 3 0 
C 3 -0.795609 2.683901 -1.55874 2.12132 -2.12132 
C 1.55874 -2.683901 0.795609 -3 0 -3 
C -0.795609 -3 -1.55874 -2.683901 -2.12132 -2.12132 
C -2.683901 -1.55874 -3 -0.795609 -3 0 
C -3 0.795609 -2.683901 1.55874 -2.12132 2.12132 
C -1.55874 2.683901 -0.795609 3 0 3 
z
" style="stroke: #0000ff"/>
    </defs>
    <g clip-path="url(#p5c4da4d593)">
     <use xlink:href="#ma038dddc32" x="69.218182" y="272.42547" style="fill: #0000ff; stroke: #0000ff"/>
     <use xlink:href="#ma038dddc32" x="96.887603" y="198.659495" style="fill: #0000ff; stroke: #0000ff"/>
     <use xlink:href="#ma038dddc32" x="124.557025" y="142.128591" style="fill: #0000ff; stroke: #0000ff"/>
     <use xlink:href="#ma038dddc32" x="152.226446" y="120.374974" style="fill: #0000ff; stroke: #0000ff"/>
     <use xlink:href="#ma038dddc32" x="179.895868" y="98.634024" style="fill: #0000ff; stroke: #0000ff"/>
     <use xlink:href="#ma038dddc32" x="207.565289" y="97.573258" style="fill: #0000ff; stroke: #0000ff"/>
     <use xlink:href="#ma038dddc32" x="235.234711" y="92.263096" style="fill: #0000ff; stroke: #0000ff"/>
     <use xlink:href="#ma038dddc32" x="262.904132" y="96.838638" style="fill: #0000ff; stroke: #0000ff"/>
     <use xlink:href="#ma038dddc32" x="290.573554" y="94.495454" style="fill: #0000ff; stroke: #0000ff"/>
     <use xlink:href="#ma038dddc32" x="318.242975" y="93.393524" style="fill: #0000ff; stroke: #0000ff"/>
     <use xlink:href="#ma038dddc32" x="345.912397" y="92.041443" style="fill: #0000ff; stroke: #0000ff"/>
     <use xlink:href="#ma038dddc32" x="373.581818" y="92.092107" style="fill: #0000ff; stroke: #0000ff"/>
    </g>
   </g>
   <g id="patch_3">
    <path d="M 54 378 
L 54 51.84 
" style="fill: none; stroke: #000000; stroke-width: 0.8; stroke-linejoin: miter; stroke-linecap: square"/>
   </g>
   <g id="patch_4">
    <path d="M 388.8 378 
L 388.8 51.84 
" style="fill: none; stroke: #000000; stroke-width: 0.8; stroke-linejoin: miter; stroke-linecap: square"/>
   </g>
   <g id="patch_5">
    <path d="M 54 378 
L 388.8 378 
" style="fill: none; stroke: #000000; stroke-width: 0.8; stroke-linejoin: miter; stroke-linecap: square"/>
   </g>
   <g id="patch_6">
    <path d="M 54 51.84 
L 388.8 51.84 
" style="fill: none; stroke: #000000; stroke-width: 0.8; stroke-linejoin: miter; stroke-linecap: square"/>
   </g>
   <g id="text_20">
    <!-- (a) -->
    <g transform="translate(290.573554 178.498611)scale(0.2 -0.2)">
     <defs>
      <path id="CMR17-28" d="M 1958 -1561 
C 1958 -1555 1958 -1542 1939 -1523 
C 1645 -1224 858 -407 858 1581 
C 858 3569 1632 4379 1946 4697 
C 1946 4704 1958 4717 1958 4736 
C 1958 4755 1939 4768 1914 4768 
C 1843 4768 1299 4296 986 3594 
C 666 2887 576 2199 576 1588 
C 576 1128 621 351 1005 -471 
C 1312 -1135 1837 -1600 1914 -1600 
C 1946 -1600 1958 -1587 1958 -1561 
z
" transform="scale(0.015625)"/>
      <path id="CMR17-29" d="M 1683 1581 
C 1683 2040 1638 2817 1254 3639 
C 947 4303 422 4768 346 4768 
C 326 4768 301 4761 301 4729 
C 301 4717 307 4710 314 4697 
C 621 4378 1402 3568 1402 1584 
C 1402 -407 627 -1217 314 -1537 
C 307 -1549 301 -1556 301 -1568 
C 301 -1600 326 -1600 346 -1600 
C 416 -1600 960 -1128 1274 -426 
C 1594 281 1683 969 1683 1581 
z
" transform="scale(0.015625)"/>
     </defs>
     <use xlink:href="#CMR17-28" transform="scale(0.996264)"/>
     <use xlink:href="#CMR17-61" transform="translate(35.280768 0)scale(0.996264)"/>
     <use xlink:href="#CMR17-29" transform="translate(80.971245 0)scale(0.996264)"/>
    </g>
   </g>
   <g id="legend_1">
    <g id="patch_7">
     <path d="M 194.93583 368 
L 374.8 368 
Q 378.8 368 378.8 364 
L 378.8 273.91662 
Q 378.8 269.91662 374.8 269.91662 
L 194.93583 269.91662 
Q 190.93583 269.91662 190.93583 273.91662 
L 190.93583 364 
Q 190.93583 368 194.93583 368 
z
" style="fill: #ffffff; opacity: 0.8; stroke: #cccccc; stroke-linejoin: miter"/>
    </g>
    <g id="text_21">
     <!-- $N=6$ -->
     <g transform="translate(253.514938 294.521025)scale(0.24 -0.24)">
      <defs>
       <path id="CMMI12-4e" d="M 4736 3698 
C 4806 3974 4909 4166 5395 4166 
C 5414 4166 5491 4166 5491 4279 
C 5491 4352 5434 4352 5408 4352 
C 5280 4352 4954 4352 4826 4352 
L 4518 4352 
C 4429 4352 4314 4352 4224 4352 
C 4186 4352 4109 4352 4109 4230 
C 4109 4166 4160 4166 4205 4166 
C 4589 4166 4614 4019 4614 3903 
C 4614 3846 4608 3826 4589 3737 
L 3866 850 
L 2496 4249 
C 2451 4352 2445 4352 2304 4352 
L 1523 4352 
C 1395 4352 1338 4352 1338 4230 
C 1338 4166 1382 4166 1504 4166 
C 1536 4166 1914 4166 1914 4115 
C 1914 4102 1901 4051 1894 4032 
L 1043 635 
C 966 320 813 186 390 186 
C 358 186 294 186 294 67 
C 294 0 358 0 378 0 
C 506 0 832 0 960 0 
L 1267 0 
C 1357 0 1466 0 1555 0 
C 1600 0 1670 0 1670 122 
C 1670 180 1606 186 1581 186 
C 1370 186 1165 224 1165 454 
C 1165 505 1178 562 1190 613 
L 2054 4032 
C 2093 3968 2093 3956 2118 3898 
L 3642 115 
C 3674 38 3686 0 3744 0 
C 3808 0 3814 19 3840 128 
L 4736 3698 
z
" transform="scale(0.015625)"/>
       <path id="CMR17-3d" d="M 4115 2017 
C 4211 2017 4307 2017 4307 2125 
C 4307 2240 4198 2240 4090 2240 
L 512 2240 
C 403 2240 294 2240 294 2125 
C 294 2017 390 2017 486 2017 
L 4115 2017 
z
M 4090 896 
C 4198 896 4307 896 4307 1011 
C 4307 1119 4211 1119 4115 1119 
L 486 1119 
C 390 1119 294 1119 294 1011 
C 294 896 403 896 512 896 
L 4090 896 
z
" transform="scale(0.015625)"/>
      </defs>
      <use xlink:href="#CMMI12-4e" transform="scale(0.996264)"/>
      <use xlink:href="#CMR17-3d" transform="translate(116.195781 0)scale(0.996264)"/>
      <use xlink:href="#CMR17-36" transform="translate(215.584578 0)scale(0.996264)"/>
     </g>
    </g>
    <g id="LineCollection_3">
     <path d="M 218.93583 327.097805 
L 218.93583 307.097805 
" style="fill: none; stroke: #ff0000; stroke-width: 1.5"/>
    </g>
    <g id="line2d_27">
     <g>
      <use xlink:href="#m187ef8f890" x="218.93583" y="327.097805" style="fill: #ff0000; stroke: #ff0000"/>
     </g>
    </g>
    <g id="line2d_28">
     <g>
      <use xlink:href="#m187ef8f890" x="218.93583" y="307.097805" style="fill: #ff0000; stroke: #ff0000"/>
     </g>
    </g>
    <g id="line2d_29"/>
    <g id="line2d_30">
     <g>
      <use xlink:href="#m085c7d88ab" x="218.93583" y="317.097805" style="fill: #ff0000; stroke: #ff0000"/>
     </g>
    </g>
    <g id="text_22">
     <!-- $\mathcal{S}_U^n$ (Uniform) -->
     <g transform="translate(254.93583 324.097805)scale(0.2 -0.2)">
      <defs>
       <path id="CMSY10-53" d="M 736 1421 
C 813 1453 1037 1594 1037 1684 
C 1037 1729 998 1729 960 1729 
C 742 1729 115 1453 115 811 
C 115 348 634 -128 1414 -128 
C 2458 -128 3667 599 3667 1475 
C 3667 2087 3027 2383 2509 2615 
C 2061 2820 1766 3085 1766 3452 
C 1766 3587 1824 3838 2022 4011 
C 2214 4179 2573 4179 2662 4179 
C 2733 4179 3002 4179 3277 4057 
C 3398 4000 3565 3924 3565 3649 
C 3565 3560 3558 3528 3539 3458 
C 3533 3439 3526 3414 3526 3394 
C 3526 3350 3565 3350 3590 3350 
C 3674 3350 3827 3414 3955 3523 
C 4038 3587 4109 3671 4109 3921 
C 4109 4236 3942 4325 3770 4403 
C 3469 4544 3174 4544 3085 4544 
C 2246 4544 1222 3901 1222 3168 
C 1222 2629 1779 2371 2086 2236 
C 2541 2031 3123 1735 3123 1195 
C 3123 764 2810 224 1837 224 
C 1184 224 659 649 659 1086 
C 659 1202 691 1317 736 1421 
z
" transform="scale(0.015625)"/>
       <path id="CMMI12-55" d="M 3238 1474 
C 3014 581 2272 57 1670 57 
C 1210 57 896 363 896 891 
C 896 916 896 1107 966 1387 
L 1594 3887 
C 1651 4103 1664 4167 2118 4167 
C 2234 4167 2298 4167 2298 4282 
C 2298 4352 2240 4352 2202 4352 
C 2086 4352 1952 4352 1830 4352 
L 1075 4352 
C 954 4352 819 4352 698 4352 
C 653 4352 576 4352 576 4231 
C 576 4167 621 4167 742 4167 
C 1126 4167 1126 4116 1126 4046 
C 1126 4008 1082 3824 1050 3715 
L 493 1488 
C 474 1418 435 1246 435 1075 
C 435 374 941 -128 1638 -128 
C 2285 -128 3002 384 3328 1197 
C 3373 1305 3430 1530 3469 1702 
C 3533 1933 3667 2496 3712 2662 
L 3955 3623 
C 4038 3956 4090 4167 4653 4167 
C 4704 4173 4730 4224 4730 4282 
C 4730 4352 4672 4352 4646 4352 
C 4557 4352 4442 4352 4352 4352 
L 4051 4352 
C 3654 4352 3450 4352 3443 4352 
C 3405 4352 3328 4352 3328 4231 
C 3328 4167 3379 4167 3424 4167 
C 3808 4167 3834 4020 3834 3905 
C 3834 3848 3834 3828 3808 3739 
L 3238 1474 
z
" transform="scale(0.015625)"/>
       <path id="CMR17-55" d="M 3456 1433 
C 3456 579 2899 38 2291 38 
C 1965 38 1670 210 1491 477 
C 1286 783 1261 1178 1261 1401 
L 1261 3874 
C 1261 4160 1331 4160 1773 4160 
L 1773 4320 
C 1587 4320 1248 4320 1050 4320 
C 851 4320 512 4320 326 4320 
L 326 4160 
C 768 4160 838 4160 838 3874 
L 838 1433 
C 838 516 1536 -128 2278 -128 
C 3110 -128 3590 719 3590 1344 
L 3590 3766 
C 3590 4122 3917 4160 4102 4160 
L 4102 4326 
C 3955 4320 3686 4320 3526 4320 
C 3366 4320 3091 4320 2944 4326 
L 2944 4160 
C 3456 4160 3456 3861 3456 3702 
L 3456 1433 
z
" transform="scale(0.015625)"/>
       <path id="CMR17-66" d="M 979 2560 
L 1709 2560 
L 1709 2725 
L 966 2725 
L 966 3494 
C 966 4022 1235 4352 1510 4352 
C 1594 4352 1690 4327 1754 4282 
C 1702 4269 1568 4225 1568 4067 
C 1568 3901 1696 3850 1786 3850 
C 1875 3850 2003 3901 2003 4067 
C 2003 4308 1773 4454 1517 4454 
C 1152 4454 653 4156 653 3481 
L 653 2725 
L 141 2725 
L 141 2560 
L 653 2560 
L 653 427 
C 653 184 627 153 218 153 
L 218 -13 
C 371 0 666 0 832 0 
C 1018 0 1344 0 1517 -13 
L 1517 153 
C 1056 153 979 153 979 439 
L 979 2560 
z
" transform="scale(0.015625)"/>
       <path id="CMR17-6d" d="M 4326 1933 
C 4326 2252 4269 2790 3507 2790 
C 3072 2790 2771 2496 2656 2151 
L 2650 2151 
C 2573 2676 2195 2790 1837 2790 
C 1331 2790 1069 2400 973 2144 
L 966 2144 
L 966 2790 
L 211 2720 
L 211 2554 
C 589 2554 646 2515 646 2208 
L 646 428 
C 646 184 621 153 211 153 
L 211 -13 
C 365 0 646 0 813 0 
C 979 0 1267 0 1421 -13 
L 1421 153 
C 1011 153 986 178 986 428 
L 986 1658 
C 986 2247 1344 2688 1792 2688 
C 2266 2688 2317 2266 2317 1958 
L 2317 428 
C 2317 184 2291 153 1882 153 
L 1882 -13 
C 2035 0 2317 0 2483 0 
C 2650 0 2938 0 3091 -13 
L 3091 153 
C 2682 153 2656 178 2656 428 
L 2656 1658 
C 2656 2247 3014 2688 3462 2688 
C 3936 2688 3987 2266 3987 1958 
L 3987 428 
C 3987 184 3962 153 3552 153 
L 3552 -13 
C 3706 0 3987 0 4154 0 
C 4320 0 4608 0 4762 -13 
L 4762 153 
C 4352 153 4326 178 4326 428 
L 4326 1933 
z
" transform="scale(0.015625)"/>
      </defs>
      <use xlink:href="#CMSY10-53" transform="scale(0.996264)"/>
      <use xlink:href="#CMMI12-6e" transform="translate(67.801074 36.153639)scale(0.697382)"/>
      <use xlink:href="#CMMI12-55" transform="translate(60.329596 -27.44057)scale(0.697382)"/>
      <use xlink:href="#CMR17-28" transform="translate(144.564603 0)scale(0.996264)"/>
      <use xlink:href="#CMR17-55" transform="translate(179.845371 0)scale(0.996264)"/>
      <use xlink:href="#CMR17-6e" transform="translate(248.9178 0)scale(0.996264)"/>
      <use xlink:href="#CMR17-69" transform="translate(299.81317 0)scale(0.996264)"/>
      <use xlink:href="#CMR17-66" transform="translate(324.684229 0)scale(0.996264)"/>
      <use xlink:href="#CMR17-6f" transform="translate(352.157741 0)scale(0.996264)"/>
      <use xlink:href="#CMR17-72" transform="translate(397.848218 0)scale(0.996264)"/>
      <use xlink:href="#CMR17-6d" transform="translate(433.128986 0)scale(0.996264)"/>
      <use xlink:href="#CMR17-29" transform="translate(510.048576 0)scale(0.996264)"/>
     </g>
    </g>
    <g id="LineCollection_4">
     <path d="M 218.93583 357.511913 
L 218.93583 337.511913 
" style="fill: none; stroke: #0000ff; stroke-width: 1.5"/>
    </g>
    <g id="line2d_31">
     <g>
      <use xlink:href="#m9980eb9796" x="218.93583" y="357.511913" style="fill: #0000ff; stroke: #0000ff"/>
     </g>
    </g>
    <g id="line2d_32">
     <g>
      <use xlink:href="#m9980eb9796" x="218.93583" y="337.511913" style="fill: #0000ff; stroke: #0000ff"/>
     </g>
    </g>
    <g id="line2d_33"/>
    <g id="line2d_34">
     <g>
      <use xlink:href="#ma038dddc32" x="218.93583" y="347.511913" style="fill: #0000ff; stroke: #0000ff"/>
     </g>
    </g>
    <g id="text_23">
     <!-- $\mathcal{S}_G^n$ (Gaussian) -->
     <g transform="translate(254.93583 354.511913)scale(0.2 -0.2)">
      <defs>
       <path id="CMMI12-47" d="M 4774 4423 
C 4774 4480 4730 4480 4717 4480 
C 4704 4480 4678 4480 4627 4416 
L 4186 3889 
C 4154 3940 4026 4163 3776 4309 
C 3501 4480 3226 4480 3130 4480 
C 1760 4480 320 3095 320 1595 
C 320 546 1050 -128 2010 -128 
C 2470 -128 3053 25 3373 427 
C 3443 185 3584 12 3629 12 
C 3661 12 3667 32 3674 32 
C 3680 44 3731 270 3763 385 
L 3866 797 
C 3917 1009 3942 1099 3987 1291 
C 4051 1536 4064 1536 4416 1536 
C 4442 1536 4518 1536 4518 1666 
C 4518 1734 4454 1734 4435 1734 
C 4326 1734 4205 1734 4090 1734 
L 3744 1734 
C 3475 1734 3194 1734 2931 1734 
C 2874 1734 2797 1734 2797 1611 
C 2797 1542 2848 1542 2848 1536 
L 3008 1536 
C 3514 1536 3514 1489 3514 1402 
C 3514 1395 3392 751 3270 561 
C 3027 204 2522 57 2144 57 
C 1651 57 851 312 851 1410 
C 851 1836 1005 2808 1626 3526 
C 2029 3984 2624 4295 3187 4295 
C 3942 4295 4211 3655 4211 3071 
C 4211 2970 4186 2831 4186 2742 
C 4186 2685 4250 2685 4269 2685 
C 4339 2685 4346 2691 4371 2805 
L 4774 4423 
z
" transform="scale(0.015625)"/>
       <path id="CMR17-47" d="M 3974 1233 
C 3974 1473 3994 1505 4390 1505 
L 4390 1670 
C 4237 1664 3891 1664 3718 1664 
C 3539 1664 3040 1664 2797 1664 
L 2797 1505 
L 2989 1505 
C 3539 1505 3552 1434 3552 1201 
L 3552 774 
C 3552 63 2720 63 2522 63 
C 1862 63 781 511 781 2160 
C 781 3808 1843 4250 2464 4250 
C 3187 4250 3712 3626 3834 2741 
C 3846 2664 3846 2651 3904 2651 
C 3974 2651 3974 2664 3974 2779 
L 3974 4288 
C 3974 4402 3968 4409 3930 4409 
C 3904 4409 3898 4402 3853 4326 
L 3571 3791 
C 3258 4187 2874 4416 2381 4416 
C 1286 4416 294 3456 294 2148 
C 294 845 1267 -128 2394 -128 
C 2912 -128 3418 56 3616 417 
C 3725 158 3904 -20 3936 -20 
C 3968 -20 3974 -13 3974 100 
L 3974 1233 
z
" transform="scale(0.015625)"/>
      </defs>
      <use xlink:href="#CMSY10-53" transform="scale(0.996264)"/>
      <use xlink:href="#CMMI12-6e" transform="translate(67.801074 36.153639)scale(0.697382)"/>
      <use xlink:href="#CMMI12-47" transform="translate(60.329596 -27.44057)scale(0.697382)"/>
      <use xlink:href="#CMR17-28" transform="translate(144.766254 0)scale(0.996264)"/>
      <use xlink:href="#CMR17-47" transform="translate(180.047022 0)scale(0.996264)"/>
      <use xlink:href="#CMR17-61" transform="translate(252.402368 0)scale(0.996264)"/>
      <use xlink:href="#CMR17-75" transform="translate(298.092845 0)scale(0.996264)"/>
      <use xlink:href="#CMR17-73" transform="translate(348.988215 0)scale(0.996264)"/>
      <use xlink:href="#CMR17-73" transform="translate(384.789553 0)scale(0.996264)"/>
      <use xlink:href="#CMR17-69" transform="translate(420.59089 0)scale(0.996264)"/>
      <use xlink:href="#CMR17-61" transform="translate(445.461949 0)scale(0.996264)"/>
      <use xlink:href="#CMR17-6e" transform="translate(491.152426 0)scale(0.996264)"/>
      <use xlink:href="#CMR17-29" transform="translate(542.047796 0)scale(0.996264)"/>
     </g>
    </g>
   </g>
  </g>
 </g>
 <defs>
  <clipPath id="p5c4da4d593">
   <rect x="54" y="51.84" width="334.8" height="326.16"/>
  </clipPath>
 </defs>
</svg>
